<?xml version="1.0" encoding="UTF-8" standalone="no"?>
<svg
   xmlns:dc="http://purl.org/dc/elements/1.1/"
   xmlns:cc="http://creativecommons.org/ns#"
   xmlns:rdf="http://www.w3.org/1999/02/22-rdf-syntax-ns#"
   xmlns:svg="http://www.w3.org/2000/svg"
   xmlns="http://www.w3.org/2000/svg"
   xmlns:sodipodi="http://sodipodi.sourceforge.net/DTD/sodipodi-0.dtd"
   xmlns:inkscape="http://www.inkscape.org/namespaces/inkscape"
   width="229.515"
   height="81.945"
   viewBox="0 0 229.515 81.945"
   version="1.1"
   id="svg3849"
   sodipodi:docname="commit-history.svg"
   style="fill:none"
   inkscape:version="0.92.4 5da689c313, 2019-01-14">
  <metadata
     id="metadata3855">
    <rdf:RDF>
      <cc:Work
         rdf:about="">
        <dc:format>image/svg+xml</dc:format>
        <dc:type
           rdf:resource="http://purl.org/dc/dcmitype/StillImage" />
        <dc:title></dc:title>
      </cc:Work>
    </rdf:RDF>
  </metadata>
  <defs
     id="defs3853" />
  <sodipodi:namedview
     pagecolor="#ffffff"
     bordercolor="#666666"
     borderopacity="1"
     objecttolerance="10"
     gridtolerance="10"
     guidetolerance="10"
     inkscape:pageopacity="0"
     inkscape:pageshadow="2"
     inkscape:window-width="2160"
     inkscape:window-height="1412"
     id="namedview3851"
     showgrid="false"
     inkscape:zoom="1.7722423"
     inkscape:cx="104.67545"
     inkscape:cy="-59.126373"
     inkscape:window-x="0"
     inkscape:window-y="28"
     inkscape:window-maximized="1"
     inkscape:current-layer="svg3849" />
  <g
     id="g3811"
     style="opacity:0.1"
     transform="translate(-63,-47)">
    <path
       d="m 18.008,81.8635 c -0.6241,2.9808 -1.5979,6.0163 -1.2961,9.004 0.1954,-2.2049 0.8401,-4.4234 1.2961,-6.6112 0.3804,-1.6613 0.5144,-3.3693 0.3977,-5.0694 -0.0744,0.8998 -0.2073,1.7939 -0.3977,2.6766 z"
       id="path3809"
       inkscape:connector-curvature="0"
       style="opacity:0.1;fill:#000000" />
  </g>
  <g
     id="g3847"
     style="opacity:0.8"
     transform="translate(-63,-47)">
    <path
       d="M 73.5137,104.371 H 287.841"
       stroke-miterlimit="10"
       id="path3813"
       inkscape:connector-curvature="0"
       style="stroke:#ffffff;stroke-width:3;stroke-miterlimit:10" />
    <path
       d="m 92.5537,104.367 c 0,0 10.2493,1.419 4.9411,-9.5438 -5.308,-10.9628 14.4012,-8.8878 14.4012,-8.8878"
       stroke-miterlimit="10"
       id="path3815"
       inkscape:connector-curvature="0"
       style="opacity:0.8;stroke:#ffffff;stroke-width:3;stroke-miterlimit:10" />
    <path
       d="m 160.812,104.367 c 0,0 10.25,-1.415 4.942,9.548 -5.308,10.963 14.401,8.888 14.401,8.888"
       stroke-miterlimit="10"
       id="path3817"
       inkscape:connector-curvature="0"
       style="opacity:0.8;stroke:#ffffff;stroke-width:3;stroke-miterlimit:10" />
    <path
       d="m 259.095,104.367 c 0,0 -10.252,-1.415 -4.941,9.548 5.312,10.963 -14.401,8.888 -14.401,8.888"
       stroke-miterlimit="10"
       id="path3819"
       inkscape:connector-curvature="0"
       style="opacity:0.8;stroke:#ffffff;stroke-width:3;stroke-miterlimit:10" />
    <path
       d="M 239.753,122.799 H 183.2"
       stroke-miterlimit="10"
       id="path3821"
       inkscape:connector-curvature="0"
       style="opacity:0.8;stroke:#ffffff;stroke-width:3;stroke-miterlimit:10" />
    <path
       d="m 73.5136,110.609 c 3.4561,0 6.2578,-2.793 6.2578,-6.238 0,-3.446 -2.8017,-6.2389 -6.2578,-6.2389 -3.456,0 -6.2577,2.7929 -6.2577,6.2389 0,3.445 2.8017,6.238 6.2577,6.238 z"
       id="path3823"
       inkscape:connector-curvature="0"
       style="fill:#7a70fa" />
    <path
       d="m 112.003,92.0851 c 3.456,0 6.258,-2.7931 6.258,-6.2386 0,-3.4454 -2.802,-6.2385 -6.258,-6.2385 -3.456,0 -6.258,2.7931 -6.258,6.2385 0,3.4455 2.802,6.2386 6.258,6.2386 z"
       id="path3825"
       inkscape:connector-curvature="0"
       style="fill:#eaf205" />
    <path
       d="m 112.003,110.609 c 3.456,0 6.258,-2.793 6.258,-6.238 0,-3.446 -2.802,-6.2389 -6.258,-6.2389 -3.456,0 -6.258,2.7929 -6.258,6.2389 0,3.445 2.802,6.238 6.258,6.238 z"
       id="path3827"
       inkscape:connector-curvature="0"
       style="fill:#7a70fa" />
    <path
       d="m 136.842,110.609 c 3.456,0 6.257,-2.793 6.257,-6.238 0,-3.446 -2.801,-6.2389 -6.257,-6.2389 -3.456,0 -6.258,2.7929 -6.258,6.2389 0,3.445 2.802,6.238 6.258,6.238 z"
       id="path3829"
       inkscape:connector-curvature="0"
       style="fill:#7a70fa" />
    <path
       d="m 180.259,128.945 c 3.456,0 6.258,-2.793 6.258,-6.238 0,-3.446 -2.802,-6.239 -6.258,-6.239 -3.456,0 -6.258,2.793 -6.258,6.239 0,3.445 2.802,6.238 6.258,6.238 z"
       id="path3831"
       inkscape:connector-curvature="0"
       style="fill:#ff6584" />
    <path
       d="m 213.066,128.945 c 3.456,0 6.258,-2.793 6.258,-6.238 0,-3.446 -2.802,-6.239 -6.258,-6.239 -3.456,0 -6.257,2.793 -6.257,6.239 0,3.445 2.801,6.238 6.257,6.238 z"
       id="path3833"
       inkscape:connector-curvature="0"
       style="fill:#ff6584" />
    <path
       d="m 211.355,110.609 c 3.456,0 6.258,-2.793 6.258,-6.238 0,-3.446 -2.802,-6.2389 -6.258,-6.2389 -3.456,0 -6.257,2.7929 -6.257,6.2389 0,3.445 2.801,6.238 6.257,6.238 z"
       id="path3835"
       inkscape:connector-curvature="0"
       style="fill:#7a70fa" />
    <path
       d="m 286.257,110.609 c 3.456,0 6.258,-2.793 6.258,-6.238 0,-3.446 -2.802,-6.2389 -6.258,-6.2389 -3.456,0 -6.258,2.7929 -6.258,6.2389 0,3.445 2.802,6.238 6.258,6.238 z"
       id="path3837"
       inkscape:connector-curvature="0"
       style="fill:#7a70fa" />
    <path
       d="m 255.616,110.609 c 3.456,0 6.258,-2.793 6.258,-6.238 0,-3.446 -2.802,-6.2389 -6.258,-6.2389 -3.456,0 -6.258,2.7929 -6.258,6.2389 0,3.445 2.802,6.238 6.258,6.238 z"
       id="path3839"
       inkscape:connector-curvature="0"
       style="fill:#7a70fa" />
    <path
       d="M 83.9952,47 H 63 v 14.4256 h 20.9952 z"
       id="path3841"
       inkscape:connector-curvature="0"
       style="fill:#7a70fa" />
    <path
       d="m 122.577,47 h -20.995 v 14.4256 h 20.995 z"
       id="path3843"
       inkscape:connector-curvature="0"
       style="fill:#eaf205" />
    <path
       d="m 190.669,47 h -20.995 v 14.4256 h 20.995 z"
       id="path3845"
       inkscape:connector-curvature="0"
       style="fill:#ff6584" />
  </g>
</svg>
