<?xml version="1.0" encoding="UTF-8" standalone="no"?>
<svg
   xmlns:dc="http://purl.org/dc/elements/1.1/"
   xmlns:cc="http://creativecommons.org/ns#"
   xmlns:rdf="http://www.w3.org/1999/02/22-rdf-syntax-ns#"
   xmlns:svg="http://www.w3.org/2000/svg"
   xmlns="http://www.w3.org/2000/svg"
   xmlns:sodipodi="http://sodipodi.sourceforge.net/DTD/sodipodi-0.dtd"
   xmlns:inkscape="http://www.inkscape.org/namespaces/inkscape"
   id="e4bbe722-77af-4dff-9d23-13f94132c30a"
   data-name="Layer 1"
   width="921.71991"
   height="653.40956"
   viewBox="0 0 921.71991 653.40956"
   version="1.1"
   sodipodi:docname="undraw_hacker_mindset_gjwq-no-tree.svg"
   inkscape:version="0.92.4 (5da689c313, 2019-01-14)">
  <metadata
     id="metadata1112">
    <rdf:RDF>
      <cc:Work
         rdf:about="">
        <dc:format>image/svg+xml</dc:format>
        <dc:type
           rdf:resource="http://purl.org/dc/dcmitype/StillImage" />
        <dc:title>hacker_mindset</dc:title>
      </cc:Work>
    </rdf:RDF>
  </metadata>
  <defs
     id="defs1110" />
  <sodipodi:namedview
     pagecolor="#ffffff"
     bordercolor="#666666"
     borderopacity="1"
     objecttolerance="10"
     gridtolerance="10"
     guidetolerance="10"
     inkscape:pageopacity="0"
     inkscape:pageshadow="2"
     inkscape:window-width="3200"
     inkscape:window-height="1290"
     id="namedview1108"
     showgrid="false"
     inkscape:zoom="1.172001"
     inkscape:cx="485.48282"
     inkscape:cy="332.93628"
     inkscape:window-x="0"
     inkscape:window-y="34"
     inkscape:window-maximized="1"
     inkscape:current-layer="e4bbe722-77af-4dff-9d23-13f94132c30a" />
  <title
     id="title1035">hacker_mindset</title>
  <polygon
     points="458.344 218.41 462.344 211.41 442.344 207.41 440.344 217.41 443.344 225.41 458.344 218.41"
     fill="#292561"
     id="polygon1041" />
  <polygon
     points="458.344 218.41 462.344 211.41 442.344 207.41 440.344 217.41 443.344 225.41 458.344 218.41"
     opacity="0.2"
     id="polygon1043" />
  <circle
     cx="446.84394"
     cy="187.90956"
     r="26"
     fill="#ffb8b8"
     id="circle1045" />
  <polygon
     points="424.844 187.91 403.844 222.91 434.844 240.91 450.844 203.91 424.844 187.91"
     fill="#ffb8b8"
     id="polygon1047" />
  <path
     d="M561.984,352.20478l-27-11s-41,7-45,20-4,118-4,118-10,26,4,27c0,0-4,6,0,7s45,0,61,5,48,9,48,4v-9s7-7,3-19-9-38-9-38,30-66,27-74-39.627-32.73752-39.627-32.73752Z"
     transform="translate(-139.14005 -123.29522)"
     fill="#292561"
     id="path1049" />
  <polygon
     points="360.844 355.91 361.844 363.91 375.844 346.91 370.844 346.91 360.844 355.91"
     fill="#ffb8b8"
     id="polygon1051" />
  <path
     d="M561.984,352.20478l-29-7s-6-5-6-11,9-15,15-21a5.53494,5.53494,0,0,1,4.02-1.67005c5.94-.05,13.14,7.74006,13.14,7.74006l-7.99,13.32995-.36.59Z"
     transform="translate(-139.14005 -123.29522)"
     fill="#292561"
     id="path1053" />
  <path
     d="M584.337,340.26347l17.147-5.55869s5.5,21.5-.5,22.5-39-2-39-2Z"
     transform="translate(-139.14005 -123.29522)"
     fill="#292561"
     id="path1055" />
  <path
     d="M491.984,508.20478l-13,74s-5,9-3,13,3,4,0,6-7,0-6,5a51.04342,51.04342,0,0,1,1,9l-28,96s-18,8-5,13,26,9,29,4,0-11,0-11l46-110s7-10,7-16,23-49,23-49,1,43,2,46-2,9-2,13-2,4,0,6,2,25,2,25-12,89-5,90,27-1,27-5-3-5-3-5l13-76s-1-5,1-9,2-4,2-6-1-3,0-4a4.93754,4.93754,0,0,0,1-3s-2-6-1-7,23-76,16-85S491.984,508.20478,491.984,508.20478Z"
     transform="translate(-139.14005 -123.29522)"
     fill="#2f2e41"
     id="path1057" />
  <path
     d="M540.984,719.20478l-7,16s-16,18-4,22,16,3,16,3,5,1,5,3,40,17,43,4-31-37-31-37v-12Z"
     transform="translate(-139.14005 -123.29522)"
     fill="#2f2e41"
     id="path1059" />
  <path
     d="M463.84928,726.61089l1.51424,17.39847s9.40163,22.17227-3.24739,22.12362-16.119-2.2756-16.119-2.2756-5.05717-.65191-5.69692,1.243S396.964,768.41226,398.28,755.13566s41.20659-25.13994,41.20659-25.13994L443.325,718.6262Z"
     transform="translate(-139.14005 -123.29522)"
     fill="#2f2e41"
     id="path1061" />
  <path
     d="M560.66011,318.32235c1.606-.10777,2.67686-1.85837,3.12129-3.5239s.55756-3.49031,1.46479-4.92153c2.486-3.92181,8.95008-2.33769,11.57509-6.153,1.61443-2.34646,1.27653-6.16723,3.60711-7.66021,1.47173-.9428,3.34776-.45722,4.96944.13509a54.30716,54.30716,0,0,1,17.11591,10.19386l2.08805-1.70011,2.6083,5.21428c1.01118-1.21946,2.96144-.274,3.81,1.08163s1.2604,3.0882,2.47038,4.0756c1.92859,1.5738,4.94138.24083,6.10956-2.0413s.97537-5.072.57046-7.6412a54.73664,54.73664,0,0,0-6.34849-18.32183l2.38634-1.43177-3.08517-.44062,1.1807-2.67875-3.23175-.03778,1.27614-2.28985c-4.34441,1.49085-8.8338-1.23972-12.98317-3.27543-6.94067-3.40513-14.74842-5.03925-22.28433-3.77426A28.16811,28.16811,0,0,0,558.02727,285.508c-3.28584,5.166-5.18305,12.66746-3.54049,18.854C555.97979,309.98536,562.49815,310.86064,560.66011,318.32235Z"
     transform="translate(-139.14005 -123.29522)"
     fill="#2f2e41"
     id="path1063" />
  <path
     d="M495.984,357.20478s-6-1-10,7-34,72-19,92,29,26,29,26l3,1,15-16-5-7s0-7-4-8-4,2-5-2,4-1-1-5-1-6-1-6Z"
     transform="translate(-139.14005 -123.29522)"
     fill="#292561"
     id="path1065" />
  <polygon
     points="462.844 367.41 461.844 375.41 447.844 358.41 452.844 358.41 462.844 367.41"
     fill="#ffb8b8"
     id="polygon1067" />
  <path
     d="M600.484,378.70478s14-7,18,1,31.5,68,16.5,88-29,26-29,26l-3,1-15-16,5-7s0-7,4-8,4,2,5-2-4-1,1-5,1-6,1-6Z"
     transform="translate(-139.14005 -123.29522)"
     fill="#292561"
     id="path1069" />
  <polygon
     points="366.344 273.41 355.344 317.41 368.344 333.41 362.344 313.41 366.344 273.41"
     opacity="0.2"
     id="polygon1071" />
  <path
     d="M559.144,319.27479l-7.99,13.32995c-5.02-1.74-5.44-13.38995-5.15-21.07C551.944,311.48475,559.144,319.27479,559.144,319.27479Z"
     transform="translate(-139.14005 -123.29522)"
     opacity="0.2"
     id="path1073" />
  <rect
     x="524.96798"
     y="279.81069"
     width="396.75193"
     height="202"
     fill="#3f3d56"
     id="rect1081" />
  <rect
     x="596.94506"
     y="347.82884"
     width="40.17978"
     height="3.34831"
     fill="#292561"
     id="rect1083"
     style="fill:#ffffff" />
  <rect
     x="650.5181"
     y="347.82884"
     width="40.17978"
     height="3.34831"
     fill="#292561"
     id="rect1085"
     style="fill:#ffffff" />
  <rect
     x="728.36641"
     y="378.80075"
     width="40.17978"
     height="3.34831"
     fill="#292561"
     id="rect1087"
     style="fill:#ffffff" />
  <rect
     x="782.77653"
     y="378.80075"
     width="40.17978"
     height="3.34831"
     fill="#292561"
     id="rect1089"
     style="fill:#ffffff" />
  <rect
     x="704.92821"
     y="347.82884"
     width="118.02809"
     height="3.34831"
     fill="#292561"
     id="rect1091"
     style="fill:#ffffff" />
  <rect
     x="596.94506"
     y="378.80075"
     width="118.02809"
     height="3.34831"
     fill="#292561"
     id="rect1093"
     style="fill:#ffffff" />
  <rect
     x="596.94506"
     y="409.77266"
     width="118.02809"
     height="3.34831"
     fill="#292561"
     id="rect1095"
     style="fill:#ffffff" />
  <rect
     x="740.92259"
     y="409.77266"
     width="82.03371"
     height="3.34831"
     fill="#292561"
     id="rect1097"
     style="fill:#ffffff" />
  <polygon
     points="585.652 361.964 571.516 347.829 585.652 333.693 588.48 336.521 577.172 347.829 588.48 359.136 585.652 361.964"
     fill="#292561"
     id="polygon1099"
     style="fill:#ffffff" />
  <polygon
     points="861.036 427.257 858.208 424.429 869.516 413.12 858.208 401.813 861.036 398.985 875.172 413.12 861.036 427.257"
     fill="#292561"
     id="polygon1101"
     style="fill:#ffffff" />
  <rect
     x="968.59125"
     y="533.99771"
     width="28.86361"
     height="4.00006"
     transform="translate(45.81388 1198.01366) rotate(-73.13998)"
     fill="#292561"
     id="rect1103"
     style="fill:#ffffff" />
</svg>
