<?xml version="1.0" encoding="UTF-8" standalone="no"?>
<svg
   xmlns:dc="http://purl.org/dc/elements/1.1/"
   xmlns:cc="http://creativecommons.org/ns#"
   xmlns:rdf="http://www.w3.org/1999/02/22-rdf-syntax-ns#"
   xmlns:svg="http://www.w3.org/2000/svg"
   xmlns="http://www.w3.org/2000/svg"
   xmlns:sodipodi="http://sodipodi.sourceforge.net/DTD/sodipodi-0.dtd"
   xmlns:inkscape="http://www.inkscape.org/namespaces/inkscape"
   inkscape:version="1.0 (4035a4fb49, 2020-05-01)"
   sodipodi:docname="undraw_developer_activity_bv83.svg"
   id="svg1719"
   version="1.1"
   fill="none"
   viewBox="0 0 143.80389 77.915001"
   height="77.915001"
   width="143.80389">
  <metadata
     id="metadata1723">
    <rdf:RDF>
      <cc:Work
         rdf:about="">
        <dc:format>image/svg+xml</dc:format>
        <dc:type
           rdf:resource="http://purl.org/dc/dcmitype/StillImage" />
        <dc:title></dc:title>
      </cc:Work>
    </rdf:RDF>
  </metadata>
  <sodipodi:namedview
     inkscape:current-layer="svg1719"
     inkscape:window-maximized="1"
     inkscape:window-y="0"
     inkscape:window-x="0"
     inkscape:cy="48.662299"
     inkscape:cx="72.1689"
     inkscape:zoom="8.7684211"
     showgrid="false"
     id="namedview1721"
     inkscape:window-height="1080"
     inkscape:window-width="2560"
     inkscape:pageshadow="2"
     inkscape:pageopacity="0"
     guidetolerance="10"
     gridtolerance="10"
     objecttolerance="10"
     borderopacity="1"
     bordercolor="#666666"
     pagecolor="#ffffff" />
  <g
     transform="translate(-16.3311,-17.085)"
     id="g1712"
     clip-path="url(#clip0)">
    <path
       id="path1302"
       fill="#6c63ff"
       d="m 36.4612,17.879 v 3.1317 h -2.9397 c 0.9211,-1.0752 1.901,-2.1191 2.9397,-3.1317 z"
       opacity="0.2" />
    <path
       id="path1304"
       fill="#6c63ff"
       d="m 41.8561,17.085 h -3.9469 v 3.9257 h 3.9469 z"
       opacity="0.2" />
    <path
       id="path1306"
       fill="#6c63ff"
       d="m 47.2506,17.085 h -3.9469 v 3.9257 h 3.9469 z"
       opacity="0.2" />
    <path
       id="path1308"
       fill="#6c63ff"
       d="m 52.6452,17.085 h -3.947 v 3.9257 h 3.947 z"
       opacity="0.2" />
    <path
       id="path1310"
       fill="#6c63ff"
       d="m 58.0387,17.085 h -3.9469 v 3.9257 h 3.9469 z"
       opacity="0.2" />
    <path
       id="path1312"
       fill="#6c63ff"
       d="m 63.4342,17.085 h -3.9469 v 3.9257 h 3.9469 z"
       opacity="0.2" />
    <path
       id="path1314"
       fill="#6c63ff"
       d="m 68.8288,17.085 h -3.947 v 3.9257 h 3.947 z" />
    <path
       id="path1316"
       fill="#6c63ff"
       d="m 74.2223,17.085 h -3.9469 v 3.9257 h 3.9469 z"
       opacity="0.2" />
    <path
       id="path1318"
       fill="#6c63ff"
       d="m 79.6178,17.085 h -3.9469 v 3.9257 h 3.9469 z"
       opacity="0.2" />
    <path
       id="path1320"
       fill="#6c63ff"
       d="m 85.0114,17.085 h -3.9469 v 3.9257 h 3.9469 z"
       opacity="0.2" />
    <path
       id="path1322"
       fill="#6c63ff"
       d="M 90.4059,17.085 H 86.459 v 3.9257 h 3.9469 z" />
    <path
       id="path1324"
       fill="#6c63ff"
       d="m 95.8014,17.085 h -3.9469 v 3.9257 h 3.9469 z"
       opacity="0.2" />
    <path
       id="path1326"
       fill="#6c63ff"
       d="m 101.195,17.085 h -3.947 v 3.9257 h 3.947 z"
       opacity="0.2" />
    <path
       id="path1328"
       fill="#6c63ff"
       d="m 106.59,17.085 h -3.946 v 3.9257 h 3.946 z"
       opacity="0.2" />
    <path
       id="path1330"
       fill="#6c63ff"
       d="m 111.985,17.085 h -3.947 v 3.9257 h 3.947 z"
       opacity="0.2" />
    <path
       id="path1332"
       fill="#6c63ff"
       d="m 117.379,17.085 h -3.947 v 3.9257 h 3.947 z"
       opacity="0.2" />
    <path
       id="path1334"
       fill="#6c63ff"
       d="m 122.773,17.085 h -3.947 v 3.9257 h 3.947 z"
       opacity="0.2" />
    <path
       id="path1336"
       fill="#6c63ff"
       d="m 128.167,17.085 h -3.947 v 3.9257 h 3.947 z" />
    <path
       id="path1338"
       fill="#6c63ff"
       d="m 133.562,17.085 h -3.947 v 3.9257 h 3.947 z" />
    <path
       id="path1340"
       fill="#6c63ff"
       d="m 138.958,17.085 h -3.947 v 3.9257 h 3.947 z"
       opacity="0.2" />
    <path
       id="path1342"
       fill="#6c63ff"
       d="m 144.351,17.085 h -3.947 v 3.9257 h 3.947 z"
       opacity="0.2" />
    <path
       id="path1344"
       fill="#6c63ff"
       d="m 149.746,17.085 h -3.947 v 3.9257 h 3.947 z" />
    <path
       id="path1346"
       fill="#6c63ff"
       d="m 155.139,17.085 h -3.947 v 3.9257 h 3.947 z" />
    <path
       id="path1348"
       fill="#6c63ff"
       d="m 31.0683,24.1208 v 1.8621 h -1.2656 c 0.4023,-0.634 0.8242,-1.2547 1.2656,-1.8621 z" />
    <path
       id="path1350"
       fill="#6c63ff"
       d="m 36.4616,22.0573 h -3.947 v 3.9257 h 3.947 z"
       opacity="0.2" />
    <path
       id="path1352"
       fill="#6c63ff"
       d="m 41.8561,22.0573 h -3.9469 v 3.9257 h 3.9469 z" />
    <path
       id="path1354"
       fill="#6c63ff"
       d="m 47.2506,22.0573 h -3.9469 v 3.9257 h 3.9469 z"
       opacity="0.2" />
    <path
       id="path1356"
       fill="#6c63ff"
       d="m 52.6452,22.0573 h -3.947 v 3.9257 h 3.947 z"
       opacity="0.7" />
    <path
       id="path1358"
       fill="#6c63ff"
       d="m 58.0387,22.0573 h -3.9469 v 3.9257 h 3.9469 z"
       opacity="0.2" />
    <path
       id="path1360"
       fill="#6c63ff"
       d="m 63.4342,22.0573 h -3.9469 v 3.9257 h 3.9469 z"
       opacity="0.4" />
    <path
       id="path1362"
       fill="#6c63ff"
       d="m 68.8288,22.0573 h -3.947 v 3.9257 h 3.947 z" />
    <path
       id="path1364"
       fill="#6c63ff"
       d="m 74.2223,22.0573 h -3.9469 v 3.9257 h 3.9469 z"
       opacity="0.4" />
    <path
       id="path1366"
       fill="#6c63ff"
       d="m 79.6178,22.0573 h -3.9469 v 3.9257 h 3.9469 z"
       opacity="0.2" />
    <path
       id="path1368"
       fill="#6c63ff"
       d="m 85.0114,22.0573 h -3.9469 v 3.9257 h 3.9469 z"
       opacity="0.4" />
    <path
       id="path1370"
       fill="#6c63ff"
       d="M 90.4059,22.0573 H 86.459 v 3.9257 h 3.9469 z" />
    <path
       id="path1372"
       fill="#6c63ff"
       d="m 95.8014,22.0573 h -3.9469 v 3.9257 h 3.9469 z"
       opacity="0.4" />
    <path
       id="path1374"
       fill="#6c63ff"
       d="m 101.195,22.0573 h -3.947 v 3.9257 h 3.947 z"
       opacity="0.4" />
    <path
       id="path1376"
       fill="#6c63ff"
       d="m 106.59,22.0573 h -3.946 v 3.9257 h 3.946 z"
       opacity="0.2" />
    <path
       id="path1378"
       fill="#6c63ff"
       d="m 111.985,22.0573 h -3.947 v 3.9257 h 3.947 z"
       opacity="0.4" />
    <path
       id="path1380"
       fill="#6c63ff"
       d="m 117.379,22.0573 h -3.947 v 3.9257 h 3.947 z"
       opacity="0.4" />
    <path
       id="path1382"
       fill="#6c63ff"
       d="m 122.773,22.0573 h -3.947 v 3.9257 h 3.947 z"
       opacity="0.2" />
    <path
       id="path1384"
       fill="#6c63ff"
       d="m 128.167,22.0573 h -3.947 v 3.9257 h 3.947 z"
       opacity="0.2" />
    <path
       id="path1386"
       fill="#6c63ff"
       d="m 133.562,22.0573 h -3.947 v 3.9257 h 3.947 z"
       opacity="0.4" />
    <path
       id="path1388"
       fill="#6c63ff"
       d="m 138.958,22.0573 h -3.947 v 3.9257 h 3.947 z"
       opacity="0.2" />
    <path
       id="path1390"
       fill="#6c63ff"
       d="m 144.351,22.0573 h -3.947 v 3.9257 h 3.947 z" />
    <path
       id="path1392"
       fill="#6c63ff"
       d="m 149.746,22.0573 h -3.947 v 3.9257 h 3.947 z" />
    <path
       id="path1394"
       fill="#6c63ff"
       d="m 155.139,22.0573 h -3.947 v 3.9257 h 3.947 z" />
    <path
       id="path1396"
       fill="#6c63ff"
       d="m 20.278,28.2129 v 2.7439 h -3.9469 v -1.3404 c 1.277,-0.5689 2.5967,-1.0381 3.9469,-1.4035 z"
       opacity="0.2" />
    <path
       id="path1398"
       fill="#6c63ff"
       d="m 25.6725,27.3264 v 3.6303 H 21.7256 V 27.865 Z"
       opacity="0.2" />
    <path
       id="path1400"
       fill="#6c63ff"
       d="m 31.0661,27.031 h -3.947 v 3.9258 h 3.947 z" />
    <path
       id="path1402"
       fill="#6c63ff"
       d="m 36.4616,27.031 h -3.947 v 3.9258 h 3.947 z"
       opacity="0.7" />
    <path
       id="path1404"
       fill="#6c63ff"
       d="m 41.8561,27.031 h -3.9469 v 3.9258 h 3.9469 z" />
    <path
       id="path1406"
       fill="#6c63ff"
       d="m 47.2506,27.031 h -3.9469 v 3.9258 h 3.9469 z"
       opacity="0.7" />
    <path
       id="path1408"
       fill="#6c63ff"
       d="m 52.6452,27.031 h -3.947 v 3.9258 h 3.947 z"
       opacity="0.7" />
    <path
       id="path1410"
       fill="#6c63ff"
       d="m 58.0387,27.031 h -3.9469 v 3.9258 h 3.9469 z"
       opacity="0.2" />
    <path
       id="path1412"
       fill="#6c63ff"
       d="m 63.4342,27.031 h -3.9469 v 3.9258 h 3.9469 z"
       opacity="0.4" />
    <path
       id="path1414"
       fill="#6c63ff"
       d="m 68.8288,27.031 h -3.947 v 3.9258 h 3.947 z"
       opacity="0.4" />
    <path
       id="path1416"
       fill="#6c63ff"
       d="m 74.2223,27.031 h -3.9469 v 3.9258 h 3.9469 z" />
    <path
       id="path1418"
       fill="#6c63ff"
       d="m 79.6178,27.031 h -3.9469 v 3.9258 h 3.9469 z"
       opacity="0.2" />
    <path
       id="path1420"
       fill="#6c63ff"
       d="m 85.0114,27.031 h -3.9469 v 3.9258 h 3.9469 z"
       opacity="0.4" />
    <path
       id="path1422"
       fill="#6c63ff"
       d="M 90.4059,27.031 H 86.459 v 3.9258 h 3.9469 z" />
    <path
       id="path1424"
       fill="#6c63ff"
       d="m 95.8014,27.031 h -3.9469 v 3.9258 h 3.9469 z"
       opacity="0.2" />
    <path
       id="path1426"
       fill="#6c63ff"
       d="m 101.195,27.031 h -3.947 v 3.9258 h 3.947 z"
       opacity="0.4" />
    <path
       id="path1428"
       fill="#6c63ff"
       d="m 106.59,27.031 h -3.946 v 3.9258 h 3.946 z"
       opacity="0.2" />
    <path
       id="path1430"
       fill="#6c63ff"
       d="m 111.985,27.031 h -3.947 v 3.9258 h 3.947 z" />
    <path
       id="path1432"
       fill="#6c63ff"
       d="m 117.379,27.031 h -3.947 v 3.9258 h 3.947 z"
       opacity="0.2" />
    <path
       id="path1434"
       fill="#6c63ff"
       d="m 122.773,27.031 h -3.947 v 3.9258 h 3.947 z"
       opacity="0.7" />
    <path
       id="path1436"
       fill="#6c63ff"
       d="m 128.167,27.031 h -3.947 v 3.9258 h 3.947 z"
       opacity="0.7" />
    <path
       id="path1438"
       fill="#6c63ff"
       d="m 133.562,27.031 h -3.947 v 3.9258 h 3.947 z"
       opacity="0.4" />
    <path
       id="path1440"
       fill="#6c63ff"
       d="m 138.958,27.031 h -3.947 v 3.9258 h 3.947 z"
       opacity="0.2" />
    <path
       id="path1442"
       fill="#6c63ff"
       d="m 144.351,27.031 h -3.947 v 3.9258 h 3.947 z" />
    <path
       id="path1444"
       fill="#6c63ff"
       d="m 149.746,27.031 h -3.947 v 3.9258 h 3.947 z" />
    <path
       id="path1446"
       fill="#6c63ff"
       d="m 155.139,27.031 h -3.947 v 3.9258 h 3.947 z" />
    <path
       id="path1448"
       fill="#6c63ff"
       d="m 20.278,32.0032 h -3.9469 v 3.9257 h 3.9469 z"
       opacity="0.2" />
    <path
       id="path1450"
       fill="#6c63ff"
       d="m 25.6725,32.0032 h -3.9469 v 3.9257 h 3.9469 z"
       opacity="0.2" />
    <path
       id="path1452"
       fill="#6c63ff"
       d="m 31.0661,32.0032 h -3.947 v 3.9257 h 3.947 z"
       opacity="0.2" />
    <path
       id="path1454"
       fill="#6c63ff"
       d="m 36.4616,32.0032 h -3.947 v 3.9257 h 3.947 z"
       opacity="0.2" />
    <path
       id="path1456"
       fill="#6c63ff"
       d="m 41.8561,32.0032 h -3.9469 v 3.9257 h 3.9469 z" />
    <path
       id="path1458"
       fill="#6c63ff"
       d="m 47.2506,32.0032 h -3.9469 v 3.9257 h 3.9469 z"
       opacity="0.7" />
    <path
       id="path1460"
       fill="#6c63ff"
       d="m 52.6452,32.0032 h -3.947 v 3.9257 h 3.947 z"
       opacity="0.7" />
    <path
       id="path1462"
       fill="#6c63ff"
       d="m 58.0387,32.0032 h -3.9469 v 3.9257 h 3.9469 z"
       opacity="0.2" />
    <path
       id="path1464"
       fill="#6c63ff"
       d="m 63.4342,32.0032 h -3.9469 v 3.9257 h 3.9469 z"
       opacity="0.2" />
    <path
       id="path1466"
       fill="#6c63ff"
       d="m 68.8288,32.0032 h -3.947 v 3.9257 h 3.947 z"
       opacity="0.4" />
    <path
       id="path1468"
       fill="#6c63ff"
       d="m 74.2223,32.0032 h -3.9469 v 3.9257 h 3.9469 z"
       opacity="0.4" />
    <path
       id="path1470"
       fill="#6c63ff"
       d="m 79.6178,32.0032 h -3.9469 v 3.9257 h 3.9469 z" />
    <path
       id="path1472"
       fill="#6c63ff"
       d="m 85.0114,32.0032 h -3.9469 v 3.9257 h 3.9469 z"
       opacity="0.2" />
    <path
       id="path1474"
       fill="#6c63ff"
       d="M 90.4059,32.0032 H 86.459 v 3.9257 h 3.9469 z"
       opacity="0.4" />
    <path
       id="path1476"
       fill="#6c63ff"
       d="m 95.8014,32.0032 h -3.9469 v 3.9257 h 3.9469 z"
       opacity="0.4" />
    <path
       id="path1478"
       fill="#6c63ff"
       d="m 101.195,32.0032 h -3.947 v 3.9257 h 3.947 z"
       opacity="0.4" />
    <path
       id="path1480"
       fill="#6c63ff"
       d="m 106.59,32.0032 h -3.946 v 3.9257 h 3.946 z"
       opacity="0.4" />
    <path
       id="path1482"
       fill="#6c63ff"
       d="m 111.985,32.0032 h -3.947 v 3.9257 h 3.947 z"
       opacity="0.2" />
    <path
       id="path1484"
       fill="#6c63ff"
       d="m 117.379,32.0032 h -3.947 v 3.9257 h 3.947 z"
       opacity="0.2" />
    <path
       id="path1486"
       fill="#6c63ff"
       d="m 122.773,32.0032 h -3.947 v 3.9257 h 3.947 z"
       opacity="0.2" />
    <path
       id="path1488"
       fill="#6c63ff"
       d="m 128.167,32.0032 h -3.947 v 3.9257 h 3.947 z"
       opacity="0.2" />
    <path
       id="path1490"
       fill="#6c63ff"
       d="m 133.562,32.0032 h -3.947 v 3.9257 h 3.947 z"
       opacity="0.7" />
    <path
       id="path1492"
       fill="#6c63ff"
       d="m 138.958,32.0032 h -3.947 v 3.9257 h 3.947 z"
       opacity="0.7" />
    <path
       id="path1494"
       fill="#6c63ff"
       d="m 144.351,32.0032 h -3.947 v 3.9257 h 3.947 z"
       opacity="0.4" />
    <path
       id="path1496"
       fill="#6c63ff"
       d="m 149.746,32.0032 h -3.947 v 3.9257 h 3.947 z"
       opacity="0.2" />
    <path
       id="path1498"
       fill="#6c63ff"
       d="m 155.139,32.0032 h -3.947 v 3.9257 h 3.947 z" />
    <path
       id="path1500"
       fill="#6c63ff"
       d="m 20.278,36.9769 h -3.9469 v 3.9258 h 3.9469 z"
       opacity="0.2" />
    <path
       id="path1502"
       fill="#6c63ff"
       d="m 25.6725,36.9769 h -3.9469 v 3.9258 h 3.9469 z"
       opacity="0.2" />
    <path
       id="path1504"
       fill="#6c63ff"
       d="m 31.0661,36.9769 h -3.947 v 3.9258 h 3.947 z"
       opacity="0.4" />
    <path
       id="path1506"
       fill="#6c63ff"
       d="m 36.4616,36.9769 h -3.947 v 3.9258 h 3.947 z"
       opacity="0.2" />
    <path
       id="path1508"
       fill="#6c63ff"
       d="m 41.8561,36.9769 h -3.9469 v 3.9258 h 3.9469 z"
       opacity="0.2" />
    <path
       id="path1510"
       fill="#6c63ff"
       d="m 47.2506,36.9769 h -3.9469 v 3.9258 h 3.9469 z"
       opacity="0.7" />
    <path
       id="path1512"
       fill="#6c63ff"
       d="m 52.6452,36.9769 h -3.947 v 3.9258 h 3.947 z"
       opacity="0.7" />
    <path
       id="path1514"
       fill="#6c63ff"
       d="m 58.0387,36.9769 h -3.9469 v 3.9258 h 3.9469 z"
       opacity="0.2" />
    <path
       id="path1516"
       fill="#6c63ff"
       d="m 63.4342,36.9769 h -3.9469 v 3.9258 h 3.9469 z"
       opacity="0.2" />
    <path
       id="path1518"
       fill="#6c63ff"
       d="m 68.8288,36.9769 h -3.947 v 3.9258 h 3.947 z"
       opacity="0.4" />
    <path
       id="path1520"
       fill="#6c63ff"
       d="m 74.2223,36.9769 h -3.9469 v 3.9258 h 3.9469 z" />
    <path
       id="path1522"
       fill="#6c63ff"
       d="m 79.6178,36.9769 h -3.9469 v 3.9258 h 3.9469 z"
       opacity="0.2" />
    <path
       id="path1524"
       fill="#6c63ff"
       d="m 85.0114,36.9769 h -3.9469 v 3.9258 h 3.9469 z" />
    <path
       id="path1526"
       fill="#6c63ff"
       d="M 90.4059,36.9769 H 86.459 v 3.9258 h 3.9469 z" />
    <path
       id="path1528"
       fill="#6c63ff"
       d="m 95.8014,36.9769 h -3.9469 v 3.9258 h 3.9469 z" />
    <path
       id="path1530"
       fill="#6c63ff"
       d="m 101.195,36.9769 h -3.947 v 3.9258 h 3.947 z"
       opacity="0.2" />
    <path
       id="path1532"
       fill="#6c63ff"
       d="m 106.59,36.9769 h -3.946 v 3.9258 h 3.946 z" />
    <path
       id="path1534"
       fill="#6c63ff"
       d="m 111.985,36.9769 h -3.947 v 3.9258 h 3.947 z"
       opacity="0.2" />
    <path
       id="path1536"
       fill="#6c63ff"
       d="m 117.379,36.9769 h -3.947 v 3.9258 h 3.947 z"
       opacity="0.2" />
    <path
       id="path1538"
       fill="#6c63ff"
       d="m 122.773,36.9769 h -3.947 v 3.9258 h 3.947 z"
       opacity="0.2" />
    <path
       id="path1540"
       fill="#6c63ff"
       d="m 128.167,36.9769 h -3.947 v 3.9258 h 3.947 z"
       opacity="0.2" />
    <path
       id="path1542"
       fill="#6c63ff"
       d="m 133.562,36.9769 h -3.947 v 3.9258 h 3.947 z"
       opacity="0.2" />
    <path
       id="path1544"
       fill="#6c63ff"
       d="m 138.958,36.9769 h -3.947 v 3.9258 h 3.947 z"
       opacity="0.7" />
    <path
       id="path1546"
       fill="#6c63ff"
       d="m 144.351,36.9769 h -3.947 v 3.9258 h 3.947 z"
       opacity="0.2" />
    <path
       id="path1548"
       fill="#6c63ff"
       d="m 149.746,36.9769 h -3.947 v 3.9258 h 3.947 z"
       opacity="0.2" />
    <path
       id="path1550"
       fill="#6c63ff"
       d="m 155.139,36.9769 h -3.947 v 3.9258 h 3.947 z" />
    <path
       id="path1552"
       fill="#6c63ff"
       d="M 20.278,41.9492 H 16.3311 V 45.875 H 20.278 Z"
       opacity="0.2" />
    <path
       id="path1554"
       fill="#6c63ff"
       d="m 25.6725,41.9492 h -3.9469 v 3.9258 h 3.9469 z"
       opacity="0.2" />
    <path
       id="path1556"
       fill="#6c63ff"
       d="m 31.0661,41.9492 h -3.947 v 3.9258 h 3.947 z"
       opacity="0.2" />
    <path
       id="path1558"
       fill="#6c63ff"
       d="m 36.4616,41.9492 h -3.947 v 3.9258 h 3.947 z"
       opacity="0.4" />
    <path
       id="path1560"
       fill="#6c63ff"
       d="m 41.8561,41.9492 h -3.9469 v 3.9258 h 3.9469 z"
       opacity="0.2" />
    <path
       id="path1562"
       fill="#6c63ff"
       d="m 47.2506,41.9492 h -3.9469 v 3.9258 h 3.9469 z"
       opacity="0.2" />
    <path
       id="path1564"
       fill="#6c63ff"
       d="m 52.6452,41.9492 h -3.947 v 3.9258 h 3.947 z"
       opacity="0.7" />
    <path
       id="path1566"
       fill="#6c63ff"
       d="m 58.0387,41.9492 h -3.9469 v 3.9258 h 3.9469 z"
       opacity="0.2" />
    <path
       id="path1568"
       fill="#6c63ff"
       d="m 63.4342,41.9492 h -3.9469 v 3.9258 h 3.9469 z"
       opacity="0.2" />
    <path
       id="path1570"
       fill="#6c63ff"
       d="m 68.8288,41.9492 h -3.947 v 3.9258 h 3.947 z"
       opacity="0.2" />
    <path
       id="path1572"
       fill="#6c63ff"
       d="m 74.2223,41.9492 h -3.9469 v 3.9258 h 3.9469 z" />
    <path
       id="path1574"
       fill="#6c63ff"
       d="m 79.6178,41.9492 h -3.9469 v 3.9258 h 3.9469 z"
       opacity="0.2" />
    <path
       id="path1576"
       fill="#6c63ff"
       d="m 85.0114,41.9492 h -3.9469 v 3.9258 h 3.9469 z" />
    <path
       id="path1578"
       fill="#6c63ff"
       d="M 90.4059,41.9492 H 86.459 v 3.9258 h 3.9469 z" />
    <path
       id="path1580"
       fill="#6c63ff"
       d="m 95.8014,41.9492 h -3.9469 v 3.9258 h 3.9469 z"
       opacity="0.2" />
    <path
       id="path1582"
       fill="#6c63ff"
       d="m 101.195,41.9492 h -3.947 v 3.9258 h 3.947 z"
       opacity="0.2" />
    <path
       id="path1584"
       fill="#6c63ff"
       d="m 106.59,41.9492 h -3.946 v 3.9258 h 3.946 z"
       opacity="0.2" />
    <path
       id="path1586"
       fill="#6c63ff"
       d="m 111.985,41.9492 h -3.947 v 3.9258 h 3.947 z"
       opacity="0.2" />
    <path
       id="path1588"
       fill="#6c63ff"
       d="m 117.379,41.9492 h -3.947 v 3.9258 h 3.947 z"
       opacity="0.2" />
    <path
       id="path1590"
       fill="#6c63ff"
       d="m 122.773,41.9492 h -3.947 v 3.9258 h 3.947 z"
       opacity="0.2" />
    <path
       id="path1592"
       fill="#6c63ff"
       d="m 128.167,41.9492 h -3.947 v 3.9258 h 3.947 z"
       opacity="0.2" />
    <path
       id="path1594"
       fill="#6c63ff"
       d="m 133.562,41.9492 h -3.947 v 3.9258 h 3.947 z"
       opacity="0.2" />
    <path
       id="path1596"
       fill="#6c63ff"
       d="m 138.958,41.9492 h -3.947 v 3.9258 h 3.947 z"
       opacity="0.2" />
    <path
       id="path1598"
       fill="#6c63ff"
       d="m 144.351,41.9492 h -3.947 v 3.9258 h 3.947 z"
       opacity="0.2" />
    <path
       id="path1600"
       fill="#6c63ff"
       d="m 149.746,41.9492 h -3.947 v 3.9258 h 3.947 z"
       opacity="0.4" />
    <path
       id="path1602"
       fill="#6c63ff"
       d="m 155.139,41.9492 h -3.947 v 3.9258 h 3.947 z" />
    <path
       id="path1604"
       fill="#6c63ff"
       d="m 20.278,46.9229 h -3.9469 v 3.9257 h 3.9469 z"
       opacity="0.7" />
    <path
       id="path1606"
       fill="#6c63ff"
       d="m 25.6725,46.9229 h -3.9469 v 3.9257 h 3.9469 z"
       opacity="0.7" />
    <path
       id="path1608"
       fill="#6c63ff"
       d="m 31.0661,46.9229 h -3.947 v 3.9257 h 3.947 z"
       opacity="0.7" />
    <path
       id="path1610"
       fill="#6c63ff"
       d="m 36.4616,46.9229 h -3.947 v 3.9257 h 3.947 z"
       opacity="0.7" />
    <path
       id="path1612"
       fill="#6c63ff"
       d="m 41.8561,46.9229 h -3.9469 v 3.9257 h 3.9469 z"
       opacity="0.7" />
    <path
       id="path1614"
       fill="#6c63ff"
       d="m 47.2506,46.9229 h -3.9469 v 3.9257 h 3.9469 z"
       opacity="0.2" />
    <path
       id="path1616"
       fill="#6c63ff"
       d="m 52.6452,46.9229 h -3.947 v 3.9257 h 3.947 z"
       opacity="0.2" />
    <path
       id="path1618"
       fill="#6c63ff"
       d="m 58.0387,46.9229 h -3.9469 v 3.9257 h 3.9469 z"
       opacity="0.2" />
    <path
       id="path1620"
       fill="#6c63ff"
       d="m 63.4342,46.9229 h -3.9469 v 3.9257 h 3.9469 z"
       opacity="0.2" />
    <path
       id="path1622"
       fill="#6c63ff"
       d="m 68.8288,46.9229 h -3.947 v 3.9257 h 3.947 z"
       opacity="0.2" />
    <path
       id="path1624"
       fill="#6c63ff"
       d="m 74.2223,46.9229 h -3.9469 v 3.9257 h 3.9469 z"
       opacity="0.2" />
    <path
       id="path1626"
       fill="#6c63ff"
       d="m 79.6178,46.9229 h -3.9469 v 3.9257 h 3.9469 z" />
    <path
       id="path1628"
       fill="#6c63ff"
       d="m 85.0114,46.9229 h -3.9469 v 3.9257 h 3.9469 z"
       opacity="0.2" />
    <path
       id="path1630"
       fill="#6c63ff"
       d="M 90.4059,46.9229 H 86.459 v 3.9257 h 3.9469 z"
       opacity="0.2" />
    <path
       id="path1632"
       fill="#6c63ff"
       d="m 95.8014,46.9229 h -3.9469 v 3.9257 h 3.9469 z"
       opacity="0.2" />
    <path
       id="path1634"
       fill="#6c63ff"
       d="m 101.195,46.9229 h -3.947 v 3.9257 h 3.947 z" />
    <path
       id="path1636"
       fill="#6c63ff"
       d="m 106.59,46.9229 h -3.946 v 3.9257 h 3.946 z"
       opacity="0.2" />
    <path
       id="path1638"
       fill="#6c63ff"
       d="m 111.985,46.9229 h -3.947 v 3.9257 h 3.947 z"
       opacity="0.2" />
    <path
       id="path1640"
       fill="#6c63ff"
       d="m 117.379,46.9229 h -3.947 v 3.9257 h 3.947 z"
       opacity="0.2" />
    <path
       id="path1642"
       fill="#6c63ff"
       d="m 122.773,46.9229 h -3.947 v 3.9257 h 3.947 z"
       opacity="0.2" />
    <path
       id="path1644"
       fill="#6c63ff"
       d="m 128.167,46.9229 h -3.947 v 3.9257 h 3.947 z"
       opacity="0.2" />
    <path
       id="path1646"
       fill="#6c63ff"
       d="m 133.562,46.9229 h -3.947 v 3.9257 h 3.947 z"
       opacity="0.2" />
    <path
       id="path1648"
       fill="#6c63ff"
       d="m 138.958,46.9229 h -3.947 v 3.9257 h 3.947 z"
       opacity="0.2" />
    <path
       id="path1650"
       fill="#6c63ff"
       d="m 144.351,46.9229 h -3.947 v 3.9257 h 3.947 z"
       opacity="0.2" />
    <path
       id="path1652"
       fill="#6c63ff"
       d="m 149.746,46.9229 h -3.947 v 3.9257 h 3.947 z"
       opacity="0.2" />
    <path
       id="path1654"
       fill="#6c63ff"
       d="m 155.139,46.9229 h -3.947 v 3.9257 h 3.947 z" />
    <path
       id="path1656"
       fill="#767d9f"
       d="m 113.645,61.3655 c 2.98,0 5.395,-2.4025 5.395,-5.3661 0,-2.9637 -2.415,-5.3662 -5.395,-5.3662 -2.98,0 -5.395,2.4025 -5.395,5.3662 0,2.9636 2.415,5.3661 5.395,5.3661 z" />
    <path
       id="path1658"
       fill="#ffb8b8"
       d="m 113.366,49.1727 c 0.538,2.3371 0.995,4.6917 1.371,7.0636 0.113,0.7049 0.213,1.4482 -0.044,2.1145 -0.215,0.5555 -0.653,0.9895 -0.996,1.4758 -0.344,0.4863 -0.604,1.1096 -0.395,1.6667 0.209,0.557 0.819,0.8617 1.401,1.0187 1.664,0.4463 3.439,0.1216 5.096,-0.3616 0.75,-0.1921 1.47,-0.4885 2.137,-0.8803 0.702,-0.4432 1.278,-1.0588 1.807,-1.6928 2.415,-2.9131 3.996,-6.4096 5.485,-9.8844 -0.957,0.0866 -1.92,-0.0545 -2.811,-0.4114 -0.891,-0.357 -1.683,-0.9196 -2.312,-1.6415 -0.61,-0.7125 -1.057,-1.7051 -0.713,-2.5762 -1.008,0.5494 -2.204,0.5864 -3.288,0.9619 -0.673,0.2555 -1.32,0.5723 -1.934,0.9464 -0.741,0.4258 -1.477,0.8597 -2.21,1.3019 -0.837,0.5017 -1.621,0.948 -2.594,0.8987 z" />
    <path
       id="path1660"
       fill="#767d9f"
       d="m 124.648,53.2016 c -0.945,1.8298 -2.175,3.5888 -3.931,4.6783 -1.756,1.0896 -4.12,1.385 -5.879,0.3078 -0.867,-0.5263 -1.523,-1.3266 -2.279,-2.0006 -0.757,-0.674 -1.702,-1.2511 -2.719,-1.1634 -1.12,0.0969 -1.997,0.9664 -2.748,1.799 -1.138,1.265 -2.238,2.5838 -3.045,4.0812 -1.547,2.8777 -1.913,6.2418 -1.845,9.5043 0.068,3.2625 0.543,6.508 0.554,9.7705 0.015,4.0135 -0.669,7.9947 -1.36,11.9481 6.359,-0.7787 12.725,0.9234 19.098,1.5682 4.079,0.417 8.188,0.4078 12.288,0.397 0.721,0 1.488,-0.0185 2.089,-0.4155 0.367,-0.2663 0.663,-0.6168 0.865,-1.0218 0.566,-1.0388 0.793,-2.2238 0.951,-3.3949 0.401,-2.9578 0.413,-5.9525 0.424,-8.938 0.028,-7.2328 0.054,-14.4919 -0.869,-21.6678 -0.228,-1.7652 -0.519,-3.5395 -1.199,-5.1908 -0.681,-1.6512 -1.792,-3.1701 -3.346,-4.055 -0.997,-0.5694 -3.311,-1.5605 -4.486,-0.9864 -1.32,0.6401 -1.93,3.5548 -2.563,4.7798 z" />
    <path
       id="path1662"
       fill="#7a70fa"
       d="m 125.119,73.6261 c -0.24,-4.4629 -1.216,-9.2258 0.862,-13.1869 0.51,-0.9726 -1.321,-2.1868 -0.755,-3.1286 0.691,-1.1483 1.215,-2.3882 1.556,-3.6827 0.118,-0.4447 0.212,-0.9156 0.101,-1.3619 -0.206,-0.8141 -1.015,-1.2988 -1.702,-1.7944 -0.758,-0.5478 -1.148,-2.2175 -1.393,-3.1209 -0.244,-0.9033 1.945,0.1847 2.826,-0.1369 1.222,-0.4448 2.775,-0.1647 3.995,0.2862 0.68,0.2493 1.42,0.2709 2.145,0.2893 1.41,0.037 2.824,0.0724 4.223,-0.1 0.628,-0.0785 1.258,-0.197 1.889,-0.1616 1.611,0.0908 3.011,1.1865 3.964,2.4823 0.953,1.2957 1.559,2.8054 2.341,4.2089 0.651,1.1696 1.428,2.2745 1.983,3.4918 0.492,1.0772 0.803,2.2345 1.111,3.3856 l 0.794,2.9531 c 0.139,0.4225 0.205,0.8653 0.195,1.3097 -0.04,0.4724 -0.251,0.9125 -0.464,1.3327 -0.808,1.5571 -1.776,3.0265 -2.889,4.3843 -1.669,2.036 -3.696,3.8719 -4.688,6.3095 -0.387,0.9496 -0.602,1.9591 -0.798,2.9655 -0.793,4.0254 -1.356,8.092 -1.687,12.1805 -1.808,-0.8321 -3.703,-1.4623 -5.65,-1.879 -0.971,-0.2066 -1.952,-0.3607 -2.94,-0.4617 -0.865,-0.0892 -1.98,0.08 -2.803,-0.1539 -1.377,-0.3893 -1.529,-2.7054 -1.738,-3.918 -0.334,-1.9314 -0.401,-3.8966 -0.413,-5.8479 -0.015,-2.2191 0.054,-4.4336 -0.065,-6.645 z" />
    <path
       id="path1664"
       fill="#7a70fa"
       d="m 94.8795,65.2807 c 0.6514,3.6933 1.3693,7.3975 2.785,10.8677 -0.0356,0.0339 -0.0712,0.0647 -0.1068,0.0955 -0.1253,0.1061 -0.2553,0.2062 -0.3914,0.3077 -0.3172,0.2216 -0.6653,0.4094 -0.9284,0.6987 -0.0996,0.1107 -0.1782,0.2385 -0.232,0.377 -0.0487,0.1083 -0.0738,0.2254 -0.0738,0.344 0,0.1185 0.0251,0.2357 0.0738,0.3439 -0.7381,0.3247 -1.5952,0.2247 -2.423,0.1939 -0.7132,-0.0261 -1.4048,0 -1.9773,0.3894 -0.7953,0.5447 -1.0351,1.5912 -1.1635,2.5422 -0.0475,0.3468 -0.0882,0.6941 -0.1222,1.0419 -0.033,0.3232 -0.0599,0.6474 -0.0805,0.9726 -0.0701,1.0758 -0.0799,2.1547 -0.0294,3.2317 0.0083,0.197 0.0191,0.3939 0.0325,0.5909 -2.5281,-0.06 -4.8319,-1.3711 -7.0119,-2.6454 -0.4982,-0.2908 -1.0119,-0.5971 -1.3353,-1.0772 -0.2979,-0.4715 -0.4241,-1.0305 -0.3574,-1.5835 0,-0.0785 0.0139,-0.1539 0.0248,-0.2339 0.0693,-0.4567 0.1881,-0.9046 0.3543,-1.3358 0.682,-1.8369 1.6874,-3.5382 2.9691,-5.0246 0.5539,-0.6432 1.1774,-1.2726 1.4358,-2.0806 0.1129,-0.3524 0.1547,-0.7263 0.2692,-1.0772 0.5137,-1.5204 2.3672,-2.2391 3.0016,-3.7149 0.1547,-0.3524 0.2259,-0.7387 0.4177,-1.0773 0.1727,-0.2813 0.3956,-0.529 0.6576,-0.7309 0.1129,-0.0939 0.2305,-0.1847 0.3466,-0.2755 1.0871,-0.8474 2.1346,-1.7426 3.1423,-2.6854 0.1878,-0.1754 0.3734,-0.3529 0.557,-0.5325 -0.0245,0.6965 0.0311,1.3936 0.1656,2.0776 z" />
    <path
       id="path1666"
       fill="#7a70fa"
       d="m 110.471,54.3574 c -0.223,0.2339 -0.465,0.4539 -0.701,0.6725 l -0.064,0.0569 -0.25,0.2308 c -0.455,0.3906 -0.849,0.8465 -1.168,1.3528 l -0.027,0.043 c -0.789,1.4051 -0.496,3.1348 -0.277,4.7306 0.273,1.9887 0.395,3.9949 0.367,6.0018 -0.04,2.77 -0.368,5.5216 -0.374,8.2886 0,0.6278 0.013,1.2542 0.041,1.8821 0.045,1.0203 0.123,2.039 0.215,3.0578 0.101,1.1172 0.222,2.2329 0.335,3.3486 0.089,0.8634 0.174,1.7252 0.246,2.5869 0.035,0.4463 0.069,0.8911 0.097,1.3374 0.033,0.5232 0.059,1.048 0.074,1.5712 0.011,0.3324 0.017,0.6633 0.017,0.9957 0,0.1893 0,0.377 0,0.5647 0,0.3601 -0.009,0.7192 -0.029,1.0773 -0.021,0.4606 -0.052,0.9223 -0.094,1.385 -0.048,0.5032 -0.134,1.0526 -0.489,1.4066 -0.022,0.0215 -0.045,0.0415 -0.068,0.0615 l -0.502,-0.0615 c -3.455,-0.4115 -6.944,-0.4734 -10.4124,-0.1847 0.0758,-0.5202 0.1455,-1.0388 0.2135,-1.5605 0.031,-0.2462 0.0619,-0.494 0.0913,-0.7417 0.034,-0.2832 0.0665,-0.5663 0.0975,-0.8495 0.0356,-0.3078 0.0681,-0.6156 0.099,-0.9233 0.0805,-0.7931 0.1511,-1.5867 0.212,-2.3807 0.0897,-1.1583 0.1578,-2.3187 0.2042,-3.4811 0.0227,-0.555 0.0402,-1.1105 0.0526,-1.6666 0.0175,-0.6894 0.0258,-1.3794 0.0248,-2.0698 0,-0.671 -0.0057,-1.343 -0.0171,-2.016 0,-0.2216 -0.0092,-0.4432 -0.0278,-0.6633 -0.0133,-0.1981 -0.0407,-0.3951 -0.082,-0.5894 -0.1149,-0.448 -0.2702,-0.8848 -0.4642,-1.305 -0.034,-0.08 -0.0665,-0.1539 -0.099,-0.2385 -0.0186,-0.0415 -0.0356,-0.0846 -0.0526,-0.1262 0.8912,-0.7894 1.5255,-1.8467 2.1351,-2.887 0.9891,-1.6759 2.0001,-3.4256 2.1661,-5.3615 0.166,-1.936 -0.801,-4.1105 -2.6612,-4.7014 -0.5059,-0.1539 -1.0412,-0.197 -1.5626,-0.2878 -0.492,-0.0862 -1.5178,-0.2816 -2.0872,-0.6325 -0.3094,0.316 -0.6189,0.6264 -0.9283,0.9311 0.0187,-0.465 0.133,-0.9211 0.3357,-1.3404 l 0.2197,0.0107 c -0.0179,-0.0492 -0.0263,-0.1015 -0.0247,-0.1538 0,-0.1647 0.1145,-0.3509 0.3589,-0.5571 0.7287,-0.6156 1.8752,-0.7526 2.3347,-1.5851 0.1919,-0.3463 0.2244,-0.7587 0.3791,-1.1219 0.444,-1.0357 1.7189,-1.4173 2.4859,-2.2452 0.768,-0.828 0.96,-2.0006 1.58,-2.924 0.464,-0.6743 1.106,-1.2071 1.857,-1.5389 0.062,-0.0292 0.125,-0.0585 0.189,-0.0846 1.284,-0.5463 2.809,-0.671 4.14,-0.6679 0.517,0 1.856,0.0154 2.512,0.2754 0.107,0.0379 0.204,0.0971 0.287,0.1739 0.699,0.7572 -0.389,2.3561 -0.905,2.904 z" />
    <path
       id="path1668"
       fill="#7a70fa"
       d="m 95.1103,61.7642 c 1.1952,-0.3579 2.45,-0.476 3.6914,-0.3473 1.2413,0.1287 2.4453,0.5014 3.5403,1.0967 1.114,0.6156 2.113,1.4743 2.726,2.5823 0.921,1.662 0.88,3.6657 0.815,5.5632 -0.032,0.9495 -0.074,1.9328 -0.495,2.7854 -0.487,0.9864 -1.406,1.6635 -2.344,2.2176 -0.587,0.3727 -1.231,0.6496 -1.906,0.8202 -1.04,0.2247 -2.1195,0.0339 -3.1669,-0.1539 -1.1388,-0.2093 -2.361,-0.4617 -3.1517,-1.305 -0.4641,-0.4894 -0.7179,-1.1249 -0.9685,-1.7467 -0.36,-0.8977 -0.721,-1.7943 -1.0831,-2.69 -0.6266,-1.5558 -0.8385,-2.85 -0.0108,-4.3659 0.376,-0.6909 0.8355,-1.3373 1.2068,-2.0329 0.1857,-0.3539 0.851,-2.3329 1.1465,-2.4237 z" />
    <path
       id="path1670"
       fill="#504f60"
       d="m 160.135,88.3673 v 4.6014 c -3.173,1.3114 -6.578,1.981 -10.015,1.9698 H 108.394 C 108.372,94.96 108.349,94.98 108.326,95 l -0.501,-0.0615 H 33.6006 c -6.2275,0 -11.9986,-1.6713 -16.7315,-4.5183 V 83.3951 L 52.5662,79.297 h 0.0279 l 20.7882,1.7513 5.3796,0.4617 2.7942,0.2354 5.7835,0.4878 2.9752,0.2509 4.3322,0.3662 0.6096,0.0508 3.1223,0.2632 4.2361,0.3462 5.957,0.5017 9.93,0.8387 6.985,0.5894 11.471,0.968 2.182,0.1831 0.235,0.02 0.204,0.017 2.881,0.2431 3.163,0.2678 0.366,0.0308 z" />
    <path
       id="path1672"
       fill="#9c9ca1"
       d="m 118.207,88.198 -44.7363,-7.5945 -1.7344,8.7241 20.5067,2.4422 6.3141,0.7864 17.3689,-3.4025 z" />
    <path
       id="path1674"
       fill="#9c9ca1"
       d="m 95.0488,92.1192 22.4132,-4.1904 c 0.112,-0.0214 0.227,-0.0178 0.338,0.0105 0.11,0.0283 0.213,0.0806 0.301,0.1531 0.088,0.0725 0.159,0.1635 0.207,0.2664 0.048,0.1028 0.073,0.2151 0.073,0.3286 0,0.1802 -0.063,0.3548 -0.179,0.4934 -0.115,0.1386 -0.276,0.2325 -0.454,0.2653 l -21.8884,4.0766 z" />
    <path
       id="path1676"
       fill="#ffb8b8"
       d="m 104.772,78.9415 c 0.698,-0.0646 1.405,-0.1739 2.033,-0.4817 0.774,-0.3832 1.376,-1.0433 2.092,-1.5296 1.575,-1.0773 3.682,-1.2219 5.488,-0.6033 1.806,0.6187 3.313,1.9436 4.368,3.5256 0.701,1.0542 1.227,2.3992 0.732,3.5626 -0.17,0.3557 -0.384,0.6886 -0.638,0.9911 l -1.29,1.6774 c -0.245,0.3526 -0.54,0.6683 -0.876,0.9372 -0.483,0.3493 -1.083,0.4925 -1.674,0.5786 -1.57,0.2278 -3.169,0.0985 -4.751,0.2032 -2.719,0.18 -5.374,1.051 -8.099,1.0218 -1.565,-0.0169 -3.1109,-0.3309 -4.6411,-0.6448 l -6.7721,-1.385 c -1.179,-0.2401 -2.5111,-0.591 -3.0666,-1.6543 -0.2491,-0.4786 -0.2955,-1.0327 -0.3249,-1.5713 -0.0804,-1.4835 0,-3.1332 1.0335,-4.2027 0.9717,-1.0034 2.5081,-1.3204 3.6685,-2.0622 1.4203,-0.9095 1.8891,-0.6156 3.3868,0.0677 2.9218,1.3162 6.1369,1.857 9.3309,1.5697 z" />
    <path
       id="path1678"
       fill="#ffb8b8"
       d="m 104.772,78.9415 c 0.698,-0.0646 1.405,-0.1739 2.033,-0.4817 0.774,-0.3832 1.376,-1.0433 2.092,-1.5296 1.575,-1.0773 3.682,-1.2219 5.488,-0.6033 1.806,0.6187 3.313,1.9436 4.368,3.5256 0.701,1.0542 1.227,2.3992 0.732,3.5626 -0.17,0.3557 -0.384,0.6886 -0.638,0.9911 l -1.29,1.6774 c -0.245,0.3526 -0.54,0.6683 -0.876,0.9372 -0.483,0.3493 -1.083,0.4925 -1.674,0.5786 -1.57,0.2278 -3.169,0.0985 -4.751,0.2032 -2.719,0.18 -5.374,1.051 -8.099,1.0218 -1.565,-0.0169 -3.1109,-0.3309 -4.6411,-0.6448 l -6.7721,-1.385 c -1.179,-0.2401 -2.5111,-0.591 -3.0666,-1.6543 -0.2491,-0.4786 -0.2955,-1.0327 -0.3249,-1.5713 -0.0804,-1.4835 0,-3.1332 1.0335,-4.2027 0.9717,-1.0034 2.5081,-1.3204 3.6685,-2.0622 1.4203,-0.9095 1.8891,-0.6156 3.3868,0.0677 2.9218,1.3162 6.1369,1.857 9.3309,1.5697 z"
       opacity="0.05" />
    <path
       id="path1680"
       fill="#ffb8b8"
       d="m 131.967,76.8316 c -1.9,0.731 -3.811,1.4651 -5.801,1.9006 -3.335,0.7309 -6.826,0.6155 -10.135,1.4512 -1.749,0.4432 -3.486,1.1572 -5.282,1.0126 -0.803,-0.0647 -1.579,-0.3078 -2.36,-0.4925 -4.389,-1.0772 -9.3791,-0.7279 -12.9438,2.0421 -1.2192,0.9465 -2.2172,2.1268 -3.1223,3.3856 -0.1937,0.2719 -0.3246,0.583 -0.3833,0.9111 -0.0588,0.328 -0.044,0.665 0.0434,0.9867 0.0873,0.3217 0.2451,0.6202 0.4619,0.8742 0.2168,0.254 0.4874,0.4572 0.7924,0.5952 1.3863,0.6341 2.8713,1.0281 4.391,1.1649 2.0314,0.1785 4.0717,-0.1077 6.0927,-0.3939 2.999,-0.4232 5.999,-0.848 8.989,-1.3235 1.074,-0.1708 2.148,-0.3478 3.228,-0.4832 7.771,-0.9772 15.684,0.2108 23.476,-0.6048 0.787,-0.0831 1.589,-0.1908 2.305,-0.5248 1.813,-0.8464 2.711,-3.0778 2.336,-5.0384 -0.374,-1.9605 -1.819,-3.5902 -3.558,-4.5905 -1.458,-0.8418 -3.03,-1.1819 -4.653,-1.5389 -1.507,-0.3494 -2.426,0.1123 -3.877,0.6663 z" />
    <path
       id="path1682"
       fill="#000000"
       d="m 148.635,65.1113 c 0.858,1.1172 1.04,2.6161 0.947,4.015 -0.093,1.3989 -0.427,2.7823 -0.476,4.1874 -0.068,1.9267 0.399,3.8472 0.32,5.7678 -0.056,1.3435 -0.376,2.6608 -0.755,3.9504 -0.447,1.522 -1.094,3.1578 -2.507,3.8888 -1.875,0.9711 -5.808,0.4247 -7.78,1.185 0.179,-1.1127 1.9,-2.7239 2.079,-3.8365 0.124,-0.7695 0.249,-1.5605 0.116,-2.3315 -0.17,-0.9834 -0.75,-1.8559 -1.439,-2.5823 -1.095,-1.1557 -2.525,-2.0252 -4.095,-2.3083 -1.571,-0.2832 -5.415,-0.0508 -6.672,0.9356 -0.155,-1.0187 2.723,-2.0006 3.735,-2.2206 0.505,-0.1124 1.083,-0.0493 1.487,-0.3678 0.774,-0.6033 0.212,-1.8052 0.249,-2.7701 0.029,-0.7694 0.481,-1.4743 0.573,-2.2437 0.154,-1.2311 -0.653,-2.4854 -0.336,-3.6934 0.117,-0.4463 0.379,-0.8387 0.56,-1.2634 0.551,-1.3004 0.309,-2.7839 0.015,-4.1659 -0.182,-0.8679 -0.36,-1.8467 0.126,-2.5869 0.45,-0.691 1.728,1.7698 2.546,1.6559 2.703,-0.3771 5.149,-2.3699 7.333,-0.7387 1.112,0.831 1.257,1.6928 1.702,2.8793 0.431,1.1296 1.55,1.7082 2.272,2.6439 z"
       opacity="0.1" />
    <path
       id="path1684"
       fill="#7a70fa"
       d="m 149.099,65.1113 c 0.857,1.1173 1.04,2.6162 0.947,4.0151 -0.093,1.3988 -0.427,2.7823 -0.476,4.1873 -0.068,1.9267 0.399,3.8473 0.32,5.7679 -0.056,1.3434 -0.376,2.6607 -0.755,3.9503 -0.447,1.522 -1.094,3.1579 -2.507,3.8889 -1.875,0.971 -5.808,0.4247 -7.781,1.1849 0.18,-1.1126 1.9,-2.7238 2.08,-3.8365 0.124,-0.7694 0.249,-1.5604 0.116,-2.3314 -0.17,-0.9834 -0.75,-1.8559 -1.439,-2.5823 -1.095,-1.1557 -2.525,-2.0252 -4.095,-2.3084 -1.571,-0.2831 -5.416,-0.0508 -6.672,0.9357 -0.155,-1.0188 2.723,-2.0006 3.735,-2.2207 0.504,-0.1123 1.083,-0.0492 1.487,-0.3678 0.773,-0.6032 0.212,-1.8051 0.249,-2.77 0.029,-0.7695 0.481,-1.4743 0.572,-2.2437 0.155,-1.2312 -0.652,-2.4854 -0.335,-3.6934 0.117,-0.4463 0.379,-0.8387 0.56,-1.2635 0.551,-1.3004 0.309,-2.7839 0.015,-4.1658 -0.182,-0.8679 -0.36,-1.8467 0.126,-2.5869 0.45,-0.691 1.33,-0.9526 2.149,-1.068 2.74,-0.3687 5.517,0.3438 7.736,1.9852 1.112,0.831 1.258,1.6928 1.702,2.8793 0.425,1.1295 1.544,1.7082 2.266,2.6438 z" />
    <path
       id="path1686"
       fill="#9c9ca1"
       d="m 46.7261,57.8198 8.4121,30.9229 c 0.1032,0.3789 0.3201,0.7175 0.6216,0.9707 0.3016,0.2532 0.6736,0.409 1.0664,0.4466 l 37.8631,3.618 c 0.3086,0.0296 0.6198,-0.0148 0.9076,-0.1294 0.2878,-0.1147 0.5438,-0.2962 0.7465,-0.5295 0.2028,-0.2333 0.3463,-0.5115 0.4187,-0.8114 0.0724,-0.2998 0.0715,-0.6125 -0.0026,-0.9119 L 87.5475,54.0957 C 87.4378,53.6523 87.1737,53.262 86.8021,52.994 86.4304,52.7261 85.9753,52.5978 85.5175,52.6322 l -37.0694,2.7577 c -0.2846,0.022 -0.5608,0.1062 -0.809,0.2466 -0.2481,0.1404 -0.4621,0.3335 -0.6265,0.5656 -0.1645,0.2321 -0.2755,0.4974 -0.325,0.777 -0.0495,0.2797 -0.0364,0.5667 0.0385,0.8407 z" />
    <path
       id="path1688"
       fill="#ffffff"
       d="m 121.782,63.854 c 2.299,0 4.162,-1.8775 4.162,-4.1936 0,-2.316 -1.863,-4.1935 -4.162,-4.1935 -2.299,0 -4.162,1.8775 -4.162,4.1935 0,2.3161 1.863,4.1936 4.162,4.1936 z" />
    <path
       id="path1690"
       fill="#ffffff"
       d="m 125.2,52.0106 c 0,0 0.877,2.5945 -1.712,3.6856 l -0.331,0.5756 1.622,1.5912 c 0,0 1.999,-3.6272 1.782,-4.9153 0,0 -0.309,-1.308 -1.361,-0.9371 z" />
    <path
       id="path1692"
       fill="#6c63ff"
       d="m 122.261,63.854 c 2.216,0 4.013,-1.7873 4.013,-3.992 0,-2.2046 -1.797,-3.9919 -4.013,-3.9919 -2.217,0 -4.014,1.7873 -4.014,3.9919 0,2.2047 1.797,3.992 4.014,3.992 z" />
    <path
       id="path1694"
       fill="#6c63ff"
       d="m 126.581,53.5372 -0.638,-1.0465 -0.928,-0.1308 c 0.198,-3.4456 -0.701,-4.4721 -0.701,-4.4721 l -0.209,-0.02 -0.909,-0.0877 -1.712,-1.7667 v -0.5017 c 2.405,0.2847 3.734,1.4204 4.452,2.7516 1.268,2.3361 0.645,5.2739 0.645,5.2739 z" />
    <path
       id="path1696"
       stroke-miterlimit="10"
       stroke="#4c4981"
       fill="#000000"
       d="m 124.113,47.2338 v 0.634 l -0.91,-0.0877 -1.711,-1.7667 c 0,0 2.647,0.5894 2.621,1.2204 z"
       opacity="0.1" />
    <path
       id="path1698"
       stroke-miterlimit="10"
       stroke="#4c4981"
       fill="#000000"
       d="m 126.581,53.5371 -0.638,-1.0465 v -4.2212 c 1.261,2.3299 0.638,5.2677 0.638,5.2677 z"
       opacity="0.1" />
    <path
       id="path1700"
       fill="#ffffff"
       d="m 114.844,61.5031 c 1.067,-0.6132 1.022,-2.6808 -0.103,-4.6181 -1.125,-1.9373 -2.902,-3.0106 -3.97,-2.3974 -1.067,0.6132 -1.022,2.6808 0.103,4.6181 1.125,1.9372 2.902,3.0106 3.97,2.3974 z" />
    <path
       id="path1702"
       fill="#6c63ff"
       d="m 113.41,57.6568 c 1.124,1.9374 2.504,3.2317 1.437,3.8472 -1.068,0.6156 -4.178,0.3078 -5.302,-1.6312 -1.125,-1.939 -0.104,-4.6167 0.964,-5.2323 1.067,-0.6156 1.774,1.0742 2.901,3.0163 z" />
    <path
       id="path1704"
       fill="#000000"
       d="m 123.425,43.6988 c 0,6.1911 -4.259,12.1574 -10.484,12.1574 -2.989,0 -5.856,-1.1811 -7.97,-3.2836 -2.114,-2.1024 -3.301,-4.954 -3.301,-7.9273 0,-2.9733 1.187,-5.8249 3.301,-7.9274 2.114,-2.1024 4.981,-3.2836 7.97,-3.2836 6.225,0.0062 10.484,4.072 10.484,10.2645 z"
       opacity="0.1" />
    <path
       id="path1706"
       fill="#ffb8b8"
       d="m 112.941,55.5546 c 6.225,0 11.272,-5.0193 11.272,-11.211 0,-6.1916 -5.047,-11.2109 -11.272,-11.2109 -6.225,0 -11.271,5.0193 -11.271,11.2109 0,6.1917 5.046,11.211 11.271,11.211 z" />
    <path
       id="path1708"
       fill="#444053"
       d="m 111.951,39.3762 c 1.341,0.4909 2.135,1.8697 3.339,2.6376 1.702,1.0773 3.917,0.7987 5.861,0.2663 1.083,-0.294 2.215,-0.6525 3.281,-0.3263 0.157,0.0691 0.33,0.0936 0.5,0.0708 0.232,-0.0662 0.346,-0.3216 0.422,-0.5494 1.319,-3.9088 0.726,-8.3363 -1.264,-11.9527 -0.513,-0.9326 -1.129,-1.8344 -1.977,-2.4823 -0.668,-0.5093 -1.454,-0.8433 -2.247,-1.128 -1.447,-0.5171 -2.945,-0.8848 -4.468,-1.0972 -0.269,-0.0486 -0.544,-0.0574 -0.815,-0.0262 -0.373,0.06 -0.707,0.2601 -1.04,0.4386 -1.425,0.7596 -3.005,1.1865 -4.62,1.2481 -2.166,0.0815 -4.642,-0.4263 -6.311,0.9556 -2.011,1.6574 -1.51,4.8907 -2.8144,7.1406 -0.8634,1.4881 -2.5282,2.5684 -2.802,4.2628 -0.0713,0.5178 -0.0382,1.0446 0.0975,1.5496 0.6374,2.607 3.1749,4.626 5.8789,4.6737 0.416,0.0315 0.832,-0.0532 1.201,-0.2447 0.242,-0.1643 0.456,-0.3664 0.633,-0.5986 1.771,-2.0868 3.798,-6.0633 7.145,-4.8383 z" />
    <path
       id="path1710"
       fill="#000000"
       d="m 125.354,40.341 c -0.076,0.2278 -0.19,0.4832 -0.422,0.5494 -0.17,0.0228 -0.343,-0.0017 -0.5,-0.0708 -1.066,-0.3262 -2.205,0.0323 -3.28,0.3263 -1.945,0.5324 -4.165,0.8171 -5.861,-0.2663 -1.205,-0.7694 -1.997,-2.1544 -3.34,-2.6377 -3.347,-1.2311 -5.374,2.7516 -7.15,4.8384 -0.177,0.2322 -0.391,0.4343 -0.633,0.5986 -0.369,0.1915 -0.785,0.2762 -1.2,0.2447 -2.696,-0.0477 -5.2346,-2.0667 -5.8798,-4.6737 -0.0356,-0.1539 -0.0666,-0.3077 -0.0898,-0.4616 0,0.0138 0,0.0261 -0.0077,0.04 -0.0713,0.5178 -0.0382,1.0447 0.0975,1.5497 0.6374,2.6069 3.1768,4.6259 5.8798,4.6736 0.415,0.0315 0.831,-0.0532 1.2,-0.2447 0.242,-0.1642 0.456,-0.3664 0.633,-0.5986 1.776,-2.0868 3.803,-6.0633 7.15,-4.8383 1.343,0.4909 2.135,1.8697 3.34,2.6377 1.702,1.0772 3.916,0.7987 5.861,0.2662 1.083,-0.2939 2.214,-0.6525 3.28,-0.3262 0.157,0.069 0.33,0.0935 0.5,0.0707 0.232,-0.0661 0.346,-0.3216 0.422,-0.5494 0.532,-1.5993 0.767,-3.2815 0.693,-4.9645 -0.045,1.3052 -0.279,2.5972 -0.693,3.8365 z"
       opacity="0.1" />
  </g>
  <defs
     id="defs1717">
    <clipPath
       id="clip0">
      <rect
         y="0"
         x="0"
         id="rect1714"
         fill="#ffffff"
         height="95"
         width="177" />
    </clipPath>
  </defs>
</svg>
