<svg width="177" height="95" viewBox="0 0 177 95" fill="none" xmlns="http://www.w3.org/2000/svg">
<g clip-path="url(#clip0)">
<path opacity="0.2" d="M36.4612 17.879V21.0107H33.5215C34.4426 19.9355 35.4225 18.8916 36.4612 17.879Z" fill="#6C63FF"/>
<path opacity="0.2" d="M41.8561 17.085H37.9092V21.0107H41.8561V17.085Z" fill="#6C63FF"/>
<path opacity="0.2" d="M47.2506 17.085H43.3037V21.0107H47.2506V17.085Z" fill="#6C63FF"/>
<path opacity="0.2" d="M52.6452 17.085H48.6982V21.0107H52.6452V17.085Z" fill="#6C63FF"/>
<path opacity="0.2" d="M58.0387 17.085H54.0918V21.0107H58.0387V17.085Z" fill="#6C63FF"/>
<path opacity="0.2" d="M63.4342 17.085H59.4873V21.0107H63.4342V17.085Z" fill="#6C63FF"/>
<path d="M68.8288 17.085H64.8818V21.0107H68.8288V17.085Z" fill="#6C63FF"/>
<path opacity="0.2" d="M74.2223 17.085H70.2754V21.0107H74.2223V17.085Z" fill="#6C63FF"/>
<path opacity="0.2" d="M79.6178 17.085H75.6709V21.0107H79.6178V17.085Z" fill="#6C63FF"/>
<path opacity="0.2" d="M85.0114 17.085H81.0645V21.0107H85.0114V17.085Z" fill="#6C63FF"/>
<path d="M90.4059 17.085H86.459V21.0107H90.4059V17.085Z" fill="#6C63FF"/>
<path opacity="0.2" d="M95.8014 17.085H91.8545V21.0107H95.8014V17.085Z" fill="#6C63FF"/>
<path opacity="0.2" d="M101.195 17.085H97.248V21.0107H101.195V17.085Z" fill="#6C63FF"/>
<path opacity="0.2" d="M106.59 17.085H102.644V21.0107H106.59V17.085Z" fill="#6C63FF"/>
<path opacity="0.2" d="M111.985 17.085H108.038V21.0107H111.985V17.085Z" fill="#6C63FF"/>
<path opacity="0.2" d="M117.379 17.085H113.432V21.0107H117.379V17.085Z" fill="#6C63FF"/>
<path opacity="0.2" d="M122.773 17.085H118.826V21.0107H122.773V17.085Z" fill="#6C63FF"/>
<path d="M128.167 17.085H124.22V21.0107H128.167V17.085Z" fill="#6C63FF"/>
<path d="M133.562 17.085H129.615V21.0107H133.562V17.085Z" fill="#6C63FF"/>
<path opacity="0.2" d="M138.958 17.085H135.011V21.0107H138.958V17.085Z" fill="#6C63FF"/>
<path opacity="0.2" d="M144.351 17.085H140.404V21.0107H144.351V17.085Z" fill="#6C63FF"/>
<path d="M149.746 17.085H145.799V21.0107H149.746V17.085Z" fill="#6C63FF"/>
<path d="M155.139 17.085H151.192V21.0107H155.139V17.085Z" fill="#6C63FF"/>
<path d="M31.0683 24.1208V25.9829H29.8027C30.205 25.3489 30.6269 24.7282 31.0683 24.1208Z" fill="#6C63FF"/>
<path opacity="0.2" d="M36.4616 22.0573H32.5146V25.983H36.4616V22.0573Z" fill="#6C63FF"/>
<path d="M41.8561 22.0573H37.9092V25.983H41.8561V22.0573Z" fill="#6C63FF"/>
<path opacity="0.2" d="M47.2506 22.0573H43.3037V25.983H47.2506V22.0573Z" fill="#6C63FF"/>
<path opacity="0.7" d="M52.6452 22.0573H48.6982V25.983H52.6452V22.0573Z" fill="#6C63FF"/>
<path opacity="0.2" d="M58.0387 22.0573H54.0918V25.983H58.0387V22.0573Z" fill="#6C63FF"/>
<path opacity="0.4" d="M63.4342 22.0573H59.4873V25.983H63.4342V22.0573Z" fill="#6C63FF"/>
<path d="M68.8288 22.0573H64.8818V25.983H68.8288V22.0573Z" fill="#6C63FF"/>
<path opacity="0.4" d="M74.2223 22.0573H70.2754V25.983H74.2223V22.0573Z" fill="#6C63FF"/>
<path opacity="0.2" d="M79.6178 22.0573H75.6709V25.983H79.6178V22.0573Z" fill="#6C63FF"/>
<path opacity="0.4" d="M85.0114 22.0573H81.0645V25.983H85.0114V22.0573Z" fill="#6C63FF"/>
<path d="M90.4059 22.0573H86.459V25.983H90.4059V22.0573Z" fill="#6C63FF"/>
<path opacity="0.4" d="M95.8014 22.0573H91.8545V25.983H95.8014V22.0573Z" fill="#6C63FF"/>
<path opacity="0.4" d="M101.195 22.0573H97.248V25.983H101.195V22.0573Z" fill="#6C63FF"/>
<path opacity="0.2" d="M106.59 22.0573H102.644V25.983H106.59V22.0573Z" fill="#6C63FF"/>
<path opacity="0.4" d="M111.985 22.0573H108.038V25.983H111.985V22.0573Z" fill="#6C63FF"/>
<path opacity="0.4" d="M117.379 22.0573H113.432V25.983H117.379V22.0573Z" fill="#6C63FF"/>
<path opacity="0.2" d="M122.773 22.0573H118.826V25.983H122.773V22.0573Z" fill="#6C63FF"/>
<path opacity="0.2" d="M128.167 22.0573H124.22V25.983H128.167V22.0573Z" fill="#6C63FF"/>
<path opacity="0.4" d="M133.562 22.0573H129.615V25.983H133.562V22.0573Z" fill="#6C63FF"/>
<path opacity="0.2" d="M138.958 22.0573H135.011V25.983H138.958V22.0573Z" fill="#6C63FF"/>
<path d="M144.351 22.0573H140.404V25.983H144.351V22.0573Z" fill="#6C63FF"/>
<path d="M149.746 22.0573H145.799V25.983H149.746V22.0573Z" fill="#6C63FF"/>
<path d="M155.139 22.0573H151.192V25.983H155.139V22.0573Z" fill="#6C63FF"/>
<path opacity="0.2" d="M20.278 28.2129V30.9568H16.3311V29.6164C17.6081 29.0475 18.9278 28.5783 20.278 28.2129Z" fill="#6C63FF"/>
<path opacity="0.2" d="M25.6725 27.3264V30.9567H21.7256V27.865L25.6725 27.3264Z" fill="#6C63FF"/>
<path d="M31.0661 27.031H27.1191V30.9568H31.0661V27.031Z" fill="#6C63FF"/>
<path opacity="0.7" d="M36.4616 27.031H32.5146V30.9568H36.4616V27.031Z" fill="#6C63FF"/>
<path d="M41.8561 27.031H37.9092V30.9568H41.8561V27.031Z" fill="#6C63FF"/>
<path opacity="0.7" d="M47.2506 27.031H43.3037V30.9568H47.2506V27.031Z" fill="#6C63FF"/>
<path opacity="0.7" d="M52.6452 27.031H48.6982V30.9568H52.6452V27.031Z" fill="#6C63FF"/>
<path opacity="0.2" d="M58.0387 27.031H54.0918V30.9568H58.0387V27.031Z" fill="#6C63FF"/>
<path opacity="0.4" d="M63.4342 27.031H59.4873V30.9568H63.4342V27.031Z" fill="#6C63FF"/>
<path opacity="0.4" d="M68.8288 27.031H64.8818V30.9568H68.8288V27.031Z" fill="#6C63FF"/>
<path d="M74.2223 27.031H70.2754V30.9568H74.2223V27.031Z" fill="#6C63FF"/>
<path opacity="0.2" d="M79.6178 27.031H75.6709V30.9568H79.6178V27.031Z" fill="#6C63FF"/>
<path opacity="0.4" d="M85.0114 27.031H81.0645V30.9568H85.0114V27.031Z" fill="#6C63FF"/>
<path d="M90.4059 27.031H86.459V30.9568H90.4059V27.031Z" fill="#6C63FF"/>
<path opacity="0.2" d="M95.8014 27.031H91.8545V30.9568H95.8014V27.031Z" fill="#6C63FF"/>
<path opacity="0.4" d="M101.195 27.031H97.248V30.9568H101.195V27.031Z" fill="#6C63FF"/>
<path opacity="0.2" d="M106.59 27.031H102.644V30.9568H106.59V27.031Z" fill="#6C63FF"/>
<path d="M111.985 27.031H108.038V30.9568H111.985V27.031Z" fill="#6C63FF"/>
<path opacity="0.2" d="M117.379 27.031H113.432V30.9568H117.379V27.031Z" fill="#6C63FF"/>
<path opacity="0.7" d="M122.773 27.031H118.826V30.9568H122.773V27.031Z" fill="#6C63FF"/>
<path opacity="0.7" d="M128.167 27.031H124.22V30.9568H128.167V27.031Z" fill="#6C63FF"/>
<path opacity="0.4" d="M133.562 27.031H129.615V30.9568H133.562V27.031Z" fill="#6C63FF"/>
<path opacity="0.2" d="M138.958 27.031H135.011V30.9568H138.958V27.031Z" fill="#6C63FF"/>
<path d="M144.351 27.031H140.404V30.9568H144.351V27.031Z" fill="#6C63FF"/>
<path d="M149.746 27.031H145.799V30.9568H149.746V27.031Z" fill="#6C63FF"/>
<path d="M155.139 27.031H151.192V30.9568H155.139V27.031Z" fill="#6C63FF"/>
<path opacity="0.2" d="M20.278 32.0032H16.3311V35.9289H20.278V32.0032Z" fill="#6C63FF"/>
<path opacity="0.2" d="M25.6725 32.0032H21.7256V35.9289H25.6725V32.0032Z" fill="#6C63FF"/>
<path opacity="0.2" d="M31.0661 32.0032H27.1191V35.9289H31.0661V32.0032Z" fill="#6C63FF"/>
<path opacity="0.2" d="M36.4616 32.0032H32.5146V35.9289H36.4616V32.0032Z" fill="#6C63FF"/>
<path d="M41.8561 32.0032H37.9092V35.9289H41.8561V32.0032Z" fill="#6C63FF"/>
<path opacity="0.7" d="M47.2506 32.0032H43.3037V35.9289H47.2506V32.0032Z" fill="#6C63FF"/>
<path opacity="0.7" d="M52.6452 32.0032H48.6982V35.9289H52.6452V32.0032Z" fill="#6C63FF"/>
<path opacity="0.2" d="M58.0387 32.0032H54.0918V35.9289H58.0387V32.0032Z" fill="#6C63FF"/>
<path opacity="0.2" d="M63.4342 32.0032H59.4873V35.9289H63.4342V32.0032Z" fill="#6C63FF"/>
<path opacity="0.4" d="M68.8288 32.0032H64.8818V35.9289H68.8288V32.0032Z" fill="#6C63FF"/>
<path opacity="0.4" d="M74.2223 32.0032H70.2754V35.9289H74.2223V32.0032Z" fill="#6C63FF"/>
<path d="M79.6178 32.0032H75.6709V35.9289H79.6178V32.0032Z" fill="#6C63FF"/>
<path opacity="0.2" d="M85.0114 32.0032H81.0645V35.9289H85.0114V32.0032Z" fill="#6C63FF"/>
<path opacity="0.4" d="M90.4059 32.0032H86.459V35.9289H90.4059V32.0032Z" fill="#6C63FF"/>
<path opacity="0.4" d="M95.8014 32.0032H91.8545V35.9289H95.8014V32.0032Z" fill="#6C63FF"/>
<path opacity="0.4" d="M101.195 32.0032H97.248V35.9289H101.195V32.0032Z" fill="#6C63FF"/>
<path opacity="0.4" d="M106.59 32.0032H102.644V35.9289H106.59V32.0032Z" fill="#6C63FF"/>
<path opacity="0.2" d="M111.985 32.0032H108.038V35.9289H111.985V32.0032Z" fill="#6C63FF"/>
<path opacity="0.2" d="M117.379 32.0032H113.432V35.9289H117.379V32.0032Z" fill="#6C63FF"/>
<path opacity="0.2" d="M122.773 32.0032H118.826V35.9289H122.773V32.0032Z" fill="#6C63FF"/>
<path opacity="0.2" d="M128.167 32.0032H124.22V35.9289H128.167V32.0032Z" fill="#6C63FF"/>
<path opacity="0.7" d="M133.562 32.0032H129.615V35.9289H133.562V32.0032Z" fill="#6C63FF"/>
<path opacity="0.7" d="M138.958 32.0032H135.011V35.9289H138.958V32.0032Z" fill="#6C63FF"/>
<path opacity="0.4" d="M144.351 32.0032H140.404V35.9289H144.351V32.0032Z" fill="#6C63FF"/>
<path opacity="0.2" d="M149.746 32.0032H145.799V35.9289H149.746V32.0032Z" fill="#6C63FF"/>
<path d="M155.139 32.0032H151.192V35.9289H155.139V32.0032Z" fill="#6C63FF"/>
<path opacity="0.2" d="M20.278 36.9769H16.3311V40.9027H20.278V36.9769Z" fill="#6C63FF"/>
<path opacity="0.2" d="M25.6725 36.9769H21.7256V40.9027H25.6725V36.9769Z" fill="#6C63FF"/>
<path opacity="0.4" d="M31.0661 36.9769H27.1191V40.9027H31.0661V36.9769Z" fill="#6C63FF"/>
<path opacity="0.2" d="M36.4616 36.9769H32.5146V40.9027H36.4616V36.9769Z" fill="#6C63FF"/>
<path opacity="0.2" d="M41.8561 36.9769H37.9092V40.9027H41.8561V36.9769Z" fill="#6C63FF"/>
<path opacity="0.7" d="M47.2506 36.9769H43.3037V40.9027H47.2506V36.9769Z" fill="#6C63FF"/>
<path opacity="0.7" d="M52.6452 36.9769H48.6982V40.9027H52.6452V36.9769Z" fill="#6C63FF"/>
<path opacity="0.2" d="M58.0387 36.9769H54.0918V40.9027H58.0387V36.9769Z" fill="#6C63FF"/>
<path opacity="0.2" d="M63.4342 36.9769H59.4873V40.9027H63.4342V36.9769Z" fill="#6C63FF"/>
<path opacity="0.4" d="M68.8288 36.9769H64.8818V40.9027H68.8288V36.9769Z" fill="#6C63FF"/>
<path d="M74.2223 36.9769H70.2754V40.9027H74.2223V36.9769Z" fill="#6C63FF"/>
<path opacity="0.2" d="M79.6178 36.9769H75.6709V40.9027H79.6178V36.9769Z" fill="#6C63FF"/>
<path d="M85.0114 36.9769H81.0645V40.9027H85.0114V36.9769Z" fill="#6C63FF"/>
<path d="M90.4059 36.9769H86.459V40.9027H90.4059V36.9769Z" fill="#6C63FF"/>
<path d="M95.8014 36.9769H91.8545V40.9027H95.8014V36.9769Z" fill="#6C63FF"/>
<path opacity="0.2" d="M101.195 36.9769H97.248V40.9027H101.195V36.9769Z" fill="#6C63FF"/>
<path d="M106.59 36.9769H102.644V40.9027H106.59V36.9769Z" fill="#6C63FF"/>
<path opacity="0.2" d="M111.985 36.9769H108.038V40.9027H111.985V36.9769Z" fill="#6C63FF"/>
<path opacity="0.2" d="M117.379 36.9769H113.432V40.9027H117.379V36.9769Z" fill="#6C63FF"/>
<path opacity="0.2" d="M122.773 36.9769H118.826V40.9027H122.773V36.9769Z" fill="#6C63FF"/>
<path opacity="0.2" d="M128.167 36.9769H124.22V40.9027H128.167V36.9769Z" fill="#6C63FF"/>
<path opacity="0.2" d="M133.562 36.9769H129.615V40.9027H133.562V36.9769Z" fill="#6C63FF"/>
<path opacity="0.7" d="M138.958 36.9769H135.011V40.9027H138.958V36.9769Z" fill="#6C63FF"/>
<path opacity="0.2" d="M144.351 36.9769H140.404V40.9027H144.351V36.9769Z" fill="#6C63FF"/>
<path opacity="0.2" d="M149.746 36.9769H145.799V40.9027H149.746V36.9769Z" fill="#6C63FF"/>
<path d="M155.139 36.9769H151.192V40.9027H155.139V36.9769Z" fill="#6C63FF"/>
<path opacity="0.2" d="M20.278 41.9492H16.3311V45.875H20.278V41.9492Z" fill="#6C63FF"/>
<path opacity="0.2" d="M25.6725 41.9492H21.7256V45.875H25.6725V41.9492Z" fill="#6C63FF"/>
<path opacity="0.2" d="M31.0661 41.9492H27.1191V45.875H31.0661V41.9492Z" fill="#6C63FF"/>
<path opacity="0.4" d="M36.4616 41.9492H32.5146V45.875H36.4616V41.9492Z" fill="#6C63FF"/>
<path opacity="0.2" d="M41.8561 41.9492H37.9092V45.875H41.8561V41.9492Z" fill="#6C63FF"/>
<path opacity="0.2" d="M47.2506 41.9492H43.3037V45.875H47.2506V41.9492Z" fill="#6C63FF"/>
<path opacity="0.7" d="M52.6452 41.9492H48.6982V45.875H52.6452V41.9492Z" fill="#6C63FF"/>
<path opacity="0.2" d="M58.0387 41.9492H54.0918V45.875H58.0387V41.9492Z" fill="#6C63FF"/>
<path opacity="0.2" d="M63.4342 41.9492H59.4873V45.875H63.4342V41.9492Z" fill="#6C63FF"/>
<path opacity="0.2" d="M68.8288 41.9492H64.8818V45.875H68.8288V41.9492Z" fill="#6C63FF"/>
<path d="M74.2223 41.9492H70.2754V45.875H74.2223V41.9492Z" fill="#6C63FF"/>
<path opacity="0.2" d="M79.6178 41.9492H75.6709V45.875H79.6178V41.9492Z" fill="#6C63FF"/>
<path d="M85.0114 41.9492H81.0645V45.875H85.0114V41.9492Z" fill="#6C63FF"/>
<path d="M90.4059 41.9492H86.459V45.875H90.4059V41.9492Z" fill="#6C63FF"/>
<path opacity="0.2" d="M95.8014 41.9492H91.8545V45.875H95.8014V41.9492Z" fill="#6C63FF"/>
<path opacity="0.2" d="M101.195 41.9492H97.248V45.875H101.195V41.9492Z" fill="#6C63FF"/>
<path opacity="0.2" d="M106.59 41.9492H102.644V45.875H106.59V41.9492Z" fill="#6C63FF"/>
<path opacity="0.2" d="M111.985 41.9492H108.038V45.875H111.985V41.9492Z" fill="#6C63FF"/>
<path opacity="0.2" d="M117.379 41.9492H113.432V45.875H117.379V41.9492Z" fill="#6C63FF"/>
<path opacity="0.2" d="M122.773 41.9492H118.826V45.875H122.773V41.9492Z" fill="#6C63FF"/>
<path opacity="0.2" d="M128.167 41.9492H124.22V45.875H128.167V41.9492Z" fill="#6C63FF"/>
<path opacity="0.2" d="M133.562 41.9492H129.615V45.875H133.562V41.9492Z" fill="#6C63FF"/>
<path opacity="0.2" d="M138.958 41.9492H135.011V45.875H138.958V41.9492Z" fill="#6C63FF"/>
<path opacity="0.2" d="M144.351 41.9492H140.404V45.875H144.351V41.9492Z" fill="#6C63FF"/>
<path opacity="0.4" d="M149.746 41.9492H145.799V45.875H149.746V41.9492Z" fill="#6C63FF"/>
<path d="M155.139 41.9492H151.192V45.875H155.139V41.9492Z" fill="#6C63FF"/>
<path opacity="0.7" d="M20.278 46.9229H16.3311V50.8486H20.278V46.9229Z" fill="#6C63FF"/>
<path opacity="0.7" d="M25.6725 46.9229H21.7256V50.8486H25.6725V46.9229Z" fill="#6C63FF"/>
<path opacity="0.7" d="M31.0661 46.9229H27.1191V50.8486H31.0661V46.9229Z" fill="#6C63FF"/>
<path opacity="0.7" d="M36.4616 46.9229H32.5146V50.8486H36.4616V46.9229Z" fill="#6C63FF"/>
<path opacity="0.7" d="M41.8561 46.9229H37.9092V50.8486H41.8561V46.9229Z" fill="#6C63FF"/>
<path opacity="0.2" d="M47.2506 46.9229H43.3037V50.8486H47.2506V46.9229Z" fill="#6C63FF"/>
<path opacity="0.2" d="M52.6452 46.9229H48.6982V50.8486H52.6452V46.9229Z" fill="#6C63FF"/>
<path opacity="0.2" d="M58.0387 46.9229H54.0918V50.8486H58.0387V46.9229Z" fill="#6C63FF"/>
<path opacity="0.2" d="M63.4342 46.9229H59.4873V50.8486H63.4342V46.9229Z" fill="#6C63FF"/>
<path opacity="0.2" d="M68.8288 46.9229H64.8818V50.8486H68.8288V46.9229Z" fill="#6C63FF"/>
<path opacity="0.2" d="M74.2223 46.9229H70.2754V50.8486H74.2223V46.9229Z" fill="#6C63FF"/>
<path d="M79.6178 46.9229H75.6709V50.8486H79.6178V46.9229Z" fill="#6C63FF"/>
<path opacity="0.2" d="M85.0114 46.9229H81.0645V50.8486H85.0114V46.9229Z" fill="#6C63FF"/>
<path opacity="0.2" d="M90.4059 46.9229H86.459V50.8486H90.4059V46.9229Z" fill="#6C63FF"/>
<path opacity="0.2" d="M95.8014 46.9229H91.8545V50.8486H95.8014V46.9229Z" fill="#6C63FF"/>
<path d="M101.195 46.9229H97.248V50.8486H101.195V46.9229Z" fill="#6C63FF"/>
<path opacity="0.2" d="M106.59 46.9229H102.644V50.8486H106.59V46.9229Z" fill="#6C63FF"/>
<path opacity="0.2" d="M111.985 46.9229H108.038V50.8486H111.985V46.9229Z" fill="#6C63FF"/>
<path opacity="0.2" d="M117.379 46.9229H113.432V50.8486H117.379V46.9229Z" fill="#6C63FF"/>
<path opacity="0.2" d="M122.773 46.9229H118.826V50.8486H122.773V46.9229Z" fill="#6C63FF"/>
<path opacity="0.2" d="M128.167 46.9229H124.22V50.8486H128.167V46.9229Z" fill="#6C63FF"/>
<path opacity="0.2" d="M133.562 46.9229H129.615V50.8486H133.562V46.9229Z" fill="#6C63FF"/>
<path opacity="0.2" d="M138.958 46.9229H135.011V50.8486H138.958V46.9229Z" fill="#6C63FF"/>
<path opacity="0.2" d="M144.351 46.9229H140.404V50.8486H144.351V46.9229Z" fill="#6C63FF"/>
<path opacity="0.2" d="M149.746 46.9229H145.799V50.8486H149.746V46.9229Z" fill="#6C63FF"/>
<path d="M155.139 46.9229H151.192V50.8486H155.139V46.9229Z" fill="#6C63FF"/>
<path d="M113.645 61.3655C116.625 61.3655 119.04 58.963 119.04 55.9994C119.04 53.0357 116.625 50.6332 113.645 50.6332C110.665 50.6332 108.25 53.0357 108.25 55.9994C108.25 58.963 110.665 61.3655 113.645 61.3655Z" fill="#767D9F"/>
<path d="M113.366 49.1727C113.904 51.5098 114.361 53.8644 114.737 56.2363C114.85 56.9412 114.95 57.6845 114.693 58.3508C114.478 58.9063 114.04 59.3403 113.697 59.8266C113.353 60.3129 113.093 60.9362 113.302 61.4933C113.511 62.0503 114.121 62.355 114.703 62.512C116.367 62.9583 118.142 62.6336 119.799 62.1504C120.549 61.9583 121.269 61.6619 121.936 61.2701C122.638 60.8269 123.214 60.2113 123.743 59.5773C126.158 56.6642 127.739 53.1677 129.228 49.6929C128.271 49.7795 127.308 49.6384 126.417 49.2815C125.526 48.9245 124.734 48.3619 124.105 47.64C123.495 46.9275 123.048 45.9349 123.392 45.0638C122.384 45.6132 121.188 45.6502 120.104 46.0257C119.431 46.2812 118.784 46.598 118.17 46.9721C117.429 47.3979 116.693 47.8318 115.96 48.274C115.123 48.7757 114.339 49.222 113.366 49.1727Z" fill="#FFB8B8"/>
<path d="M124.648 53.2016C123.703 55.0314 122.473 56.7904 120.717 57.8799C118.961 58.9695 116.597 59.2649 114.838 58.1877C113.971 57.6614 113.315 56.8611 112.559 56.1871C111.802 55.5131 110.857 54.936 109.84 55.0237C108.72 55.1206 107.843 55.9901 107.092 56.8227C105.954 58.0877 104.854 59.4065 104.047 60.9039C102.5 63.7816 102.134 67.1457 102.202 70.4082C102.27 73.6707 102.745 76.9162 102.756 80.1787C102.771 84.1922 102.087 88.1734 101.396 92.1268C107.755 91.3481 114.121 93.0502 120.494 93.695C124.573 94.112 128.682 94.1028 132.782 94.092C133.503 94.092 134.27 94.0735 134.871 93.6765C135.238 93.4102 135.534 93.0597 135.736 92.6547C136.302 91.6159 136.529 90.4309 136.687 89.2598C137.088 86.302 137.1 83.3073 137.111 80.3218C137.139 73.089 137.165 65.8299 136.242 58.654C136.014 56.8888 135.723 55.1145 135.043 53.4632C134.362 51.812 133.251 50.2931 131.697 49.4082C130.7 48.8388 128.386 47.8477 127.211 48.4218C125.891 49.0619 125.281 51.9766 124.648 53.2016Z" fill="#767D9F"/>
<path d="M125.119 73.6261C124.879 69.1632 123.903 64.4003 125.981 60.4392C126.491 59.4666 124.66 58.2524 125.226 57.3106C125.917 56.1623 126.441 54.9224 126.782 53.6279C126.9 53.1832 126.994 52.7123 126.883 52.266C126.677 51.4519 125.868 50.9672 125.181 50.4716C124.423 49.9238 124.033 48.2541 123.788 47.3507C123.544 46.4474 125.733 47.5354 126.614 47.2138C127.836 46.769 129.389 47.0491 130.609 47.5C131.289 47.7493 132.029 47.7709 132.754 47.7893C134.164 47.8263 135.578 47.8617 136.977 47.6893C137.605 47.6108 138.235 47.4923 138.866 47.5277C140.477 47.6185 141.877 48.7142 142.83 50.01C143.783 51.3057 144.389 52.8154 145.171 54.2189C145.822 55.3885 146.599 56.4934 147.154 57.7107C147.646 58.7879 147.957 59.9452 148.265 61.0963L149.059 64.0494C149.198 64.4719 149.264 64.9147 149.254 65.3591C149.214 65.8315 149.003 66.2716 148.79 66.6918C147.982 68.2489 147.014 69.7183 145.901 71.0761C144.232 73.1121 142.205 74.948 141.213 77.3856C140.826 78.3352 140.611 79.3447 140.415 80.3511C139.622 84.3765 139.059 88.4431 138.728 92.5316C136.92 91.6995 135.025 91.0693 133.078 90.6526C132.107 90.446 131.126 90.2919 130.138 90.1909C129.273 90.1017 128.158 90.2709 127.335 90.037C125.958 89.6477 125.806 87.3316 125.597 86.119C125.263 84.1876 125.196 82.2224 125.184 80.2711C125.169 78.052 125.238 75.8375 125.119 73.6261Z" fill="#7A70FA"/>
<path d="M94.8795 65.2807C95.5309 68.974 96.2488 72.6782 97.6645 76.1484C97.6289 76.1823 97.5933 76.2131 97.5577 76.2439C97.4324 76.35 97.3024 76.4501 97.1663 76.5516C96.8491 76.7732 96.501 76.961 96.2379 77.2503C96.1383 77.361 96.0597 77.4888 96.0059 77.6273C95.9572 77.7356 95.9321 77.8527 95.9321 77.9713C95.9321 78.0898 95.9572 78.207 96.0059 78.3152C95.2678 78.6399 94.4107 78.5399 93.5829 78.5091C92.8697 78.483 92.1781 78.5091 91.6056 78.8985C90.8103 79.4432 90.5705 80.4897 90.4421 81.4407C90.3946 81.7875 90.3539 82.1348 90.3199 82.4826C90.2869 82.8058 90.26 83.13 90.2394 83.4552C90.1693 84.531 90.1595 85.6099 90.21 86.6869C90.2183 86.8839 90.2291 87.0808 90.2425 87.2778C87.7144 87.2178 85.4106 85.9067 83.2306 84.6324C82.7324 84.3416 82.2187 84.0353 81.8953 83.5552C81.5974 83.0837 81.4712 82.5247 81.5379 81.9717C81.5379 81.8932 81.5518 81.8178 81.5627 81.7378C81.632 81.2811 81.7508 80.8332 81.917 80.402C82.599 78.5651 83.6044 76.8638 84.8861 75.3774C85.44 74.7342 86.0635 74.1048 86.3219 73.2968C86.4348 72.9444 86.4766 72.5705 86.5911 72.2196C87.1048 70.6992 88.9583 69.9805 89.5927 68.5047C89.7474 68.1523 89.8186 67.766 90.0104 67.4274C90.1831 67.1461 90.406 66.8984 90.668 66.6965C90.7809 66.6026 90.8985 66.5118 91.0146 66.421C92.1017 65.5736 93.1492 64.6784 94.1569 63.7356C94.3447 63.5602 94.5303 63.3827 94.7139 63.2031C94.6894 63.8996 94.745 64.5967 94.8795 65.2807Z" fill="#7A70FA"/>
<path d="M110.471 54.3574C110.248 54.5913 110.006 54.8113 109.77 55.0299L109.706 55.0868L109.456 55.3176C109.001 55.7082 108.607 56.1641 108.288 56.6704L108.261 56.7134C107.472 58.1185 107.765 59.8482 107.984 61.444C108.257 63.4327 108.379 65.4389 108.351 67.4458C108.311 70.2158 107.983 72.9674 107.977 75.7344C107.977 76.3622 107.99 76.9886 108.018 77.6165C108.063 78.6368 108.141 79.6555 108.233 80.6743C108.334 81.7915 108.455 82.9072 108.568 84.0229C108.657 84.8863 108.742 85.7481 108.814 86.6098C108.849 87.0561 108.883 87.5009 108.911 87.9472C108.944 88.4704 108.97 88.9952 108.985 89.5184C108.996 89.8508 109.002 90.1817 109.002 90.5141C109.002 90.7034 109.002 90.8911 109.002 91.0788C109.002 91.4389 108.993 91.798 108.973 92.1561C108.952 92.6167 108.921 93.0784 108.879 93.5411C108.831 94.0443 108.745 94.5937 108.39 94.9477C108.368 94.9692 108.345 94.9892 108.322 95.0092L107.82 94.9477C104.365 94.5362 100.876 94.4743 97.4076 94.763C97.4834 94.2428 97.5531 93.7242 97.6211 93.2025C97.6521 92.9563 97.683 92.7085 97.7124 92.4608C97.7464 92.1776 97.7789 91.8945 97.8099 91.6113C97.8455 91.3035 97.878 90.9957 97.9089 90.688C97.9894 89.8949 98.06 89.1013 98.1209 88.3073C98.2106 87.149 98.2787 85.9886 98.3251 84.8262C98.3478 84.2712 98.3653 83.7157 98.3777 83.1596C98.3952 82.4702 98.4035 81.7802 98.4025 81.0898C98.4025 80.4188 98.3968 79.7468 98.3854 79.0738C98.3854 78.8522 98.3762 78.6306 98.3576 78.4105C98.3443 78.2124 98.3169 78.0154 98.2756 77.8211C98.1607 77.3731 98.0054 76.9363 97.8114 76.5161C97.7774 76.4361 97.7449 76.3622 97.7124 76.2776C97.6938 76.2361 97.6768 76.193 97.6598 76.1514C98.551 75.362 99.1853 74.3047 99.7949 73.2644C100.784 71.5885 101.795 69.8388 101.961 67.9029C102.127 65.9669 101.16 63.7924 99.2998 63.2015C98.7939 63.0476 98.2586 63.0045 97.7372 62.9137C97.2452 62.8275 96.2194 62.6321 95.65 62.2812C95.3406 62.5972 95.0311 62.9076 94.7217 63.2123C94.7404 62.7473 94.8547 62.2912 95.0574 61.8719L95.2771 61.8826C95.2592 61.8334 95.2508 61.7811 95.2524 61.7288C95.2524 61.5641 95.3669 61.3779 95.6113 61.1717C96.34 60.5561 97.4865 60.4191 97.946 59.5866C98.1379 59.2403 98.1704 58.8279 98.3251 58.4647C98.7691 57.429 100.044 57.0474 100.811 56.2195C101.579 55.3915 101.771 54.2189 102.391 53.2955C102.855 52.6212 103.497 52.0884 104.248 51.7566C104.31 51.7274 104.373 51.6981 104.437 51.672C105.721 51.1257 107.246 51.001 108.577 51.0041C109.094 51.0041 110.433 51.0195 111.089 51.2795C111.196 51.3174 111.293 51.3766 111.376 51.4534C112.075 52.2106 110.987 53.8095 110.471 54.3574Z" fill="#7A70FA"/>
<path d="M95.1103 61.7642C96.3055 61.4063 97.5603 61.2882 98.8017 61.4169C100.043 61.5456 101.247 61.9183 102.342 62.5136C103.456 63.1292 104.455 63.9879 105.068 65.0959C105.989 66.7579 105.948 68.7616 105.883 70.6591C105.851 71.6086 105.809 72.5919 105.388 73.4445C104.901 74.4309 103.982 75.108 103.044 75.6621C102.457 76.0348 101.813 76.3117 101.138 76.4823C100.098 76.707 99.0185 76.5162 97.9711 76.3284C96.8323 76.1191 95.6101 75.8667 94.8194 75.0234C94.3553 74.534 94.1015 73.8985 93.8509 73.2767C93.4909 72.379 93.1299 71.4824 92.7678 70.5867C92.1412 69.0309 91.9293 67.7367 92.757 66.2208C93.133 65.5299 93.5925 64.8835 93.9638 64.1879C94.1495 63.834 94.8148 61.855 95.1103 61.7642Z" fill="#7A70FA"/>
<path d="M160.135 88.3673V92.9687C156.962 94.2801 153.557 94.9497 150.12 94.9385H108.394C108.372 94.96 108.349 94.98 108.326 95L107.825 94.9385H33.6006C27.3731 94.9385 21.602 93.2672 16.8691 90.4202V83.3951L52.5662 79.297H52.5941L73.3823 81.0483L78.7619 81.51L81.5561 81.7454L87.3396 82.2332L90.3148 82.4841L94.647 82.8503L95.2566 82.9011L98.3789 83.1643L102.615 83.5105L108.572 84.0122L118.502 84.8509L125.487 85.4403L136.958 86.4083L139.14 86.5914L139.375 86.6114L139.579 86.6284L142.46 86.8715L145.623 87.1393L145.989 87.1701L160.135 88.3673Z" fill="#504F60"/>
<path d="M118.207 88.198L73.4707 80.6035L71.7363 89.3276L92.243 91.7698L98.5571 92.5562L115.926 89.1537L118.207 88.198Z" fill="#9C9CA1"/>
<path d="M95.0488 92.1192L117.462 87.9288C117.574 87.9074 117.689 87.911 117.8 87.9393C117.91 87.9676 118.013 88.0199 118.101 88.0924C118.189 88.1649 118.26 88.2559 118.308 88.3588C118.356 88.4616 118.381 88.5739 118.381 88.6874C118.381 88.8676 118.318 89.0422 118.202 89.1808C118.087 89.3194 117.926 89.4133 117.748 89.4461L95.8596 93.5227L95.0488 92.1192Z" fill="#9C9CA1"/>
<path d="M104.772 78.9415C105.47 78.8769 106.177 78.7676 106.805 78.4598C107.579 78.0766 108.181 77.4165 108.897 76.9302C110.472 75.8529 112.579 75.7083 114.385 76.3269C116.191 76.9456 117.698 78.2705 118.753 79.8525C119.454 80.9067 119.98 82.2517 119.485 83.4151C119.315 83.7708 119.101 84.1037 118.847 84.4062L117.557 86.0836C117.312 86.4362 117.017 86.7519 116.681 87.0208C116.198 87.3701 115.598 87.5133 115.007 87.5994C113.437 87.8272 111.838 87.6979 110.256 87.8026C107.537 87.9826 104.882 88.8536 102.157 88.8244C100.592 88.8075 99.0461 88.4935 97.5159 88.1796L90.7438 86.7946C89.5648 86.5545 88.2327 86.2036 87.6772 85.1403C87.4281 84.6617 87.3817 84.1076 87.3523 83.569C87.2719 82.0855 87.3523 80.4358 88.3858 79.3663C89.3575 78.3629 90.8939 78.0459 92.0543 77.3041C93.4746 76.3946 93.9434 76.6885 95.4411 77.3718C98.3629 78.688 101.578 79.2288 104.772 78.9415Z" fill="#FFB8B8"/>
<path opacity="0.05" d="M104.772 78.9415C105.47 78.8769 106.177 78.7676 106.805 78.4598C107.579 78.0766 108.181 77.4165 108.897 76.9302C110.472 75.8529 112.579 75.7083 114.385 76.3269C116.191 76.9456 117.698 78.2705 118.753 79.8525C119.454 80.9067 119.98 82.2517 119.485 83.4151C119.315 83.7708 119.101 84.1037 118.847 84.4062L117.557 86.0836C117.312 86.4362 117.017 86.7519 116.681 87.0208C116.198 87.3701 115.598 87.5133 115.007 87.5994C113.437 87.8272 111.838 87.6979 110.256 87.8026C107.537 87.9826 104.882 88.8536 102.157 88.8244C100.592 88.8075 99.0461 88.4935 97.5159 88.1796L90.7438 86.7946C89.5648 86.5545 88.2327 86.2036 87.6772 85.1403C87.4281 84.6617 87.3817 84.1076 87.3523 83.569C87.2719 82.0855 87.3523 80.4358 88.3858 79.3663C89.3575 78.3629 90.8939 78.0459 92.0543 77.3041C93.4746 76.3946 93.9434 76.6885 95.4411 77.3718C98.3629 78.688 101.578 79.2288 104.772 78.9415Z" fill="#FFB8B8"/>
<path d="M131.967 76.8316C130.067 77.5626 128.156 78.2967 126.166 78.7322C122.831 79.4631 119.34 79.3477 116.031 80.1834C114.282 80.6266 112.545 81.3406 110.749 81.196C109.946 81.1313 109.17 80.8882 108.389 80.7035C104 79.6263 99.0099 79.9756 95.4452 82.7456C94.226 83.6921 93.228 84.8724 92.3229 86.1312C92.1292 86.4031 91.9983 86.7142 91.9396 87.0423C91.8808 87.3703 91.8956 87.7073 91.983 88.029C92.0703 88.3507 92.2281 88.6492 92.4449 88.9032C92.6617 89.1572 92.9323 89.3604 93.2373 89.4984C94.6236 90.1325 96.1086 90.5265 97.6283 90.6633C99.6597 90.8418 101.7 90.5556 103.721 90.2694C106.72 89.8462 109.72 89.4214 112.71 88.9459C113.784 88.7751 114.858 88.5981 115.938 88.4627C123.709 87.4855 131.622 88.6735 139.414 87.8579C140.201 87.7748 141.003 87.6671 141.719 87.3331C143.532 86.4867 144.43 84.2553 144.055 82.2947C143.681 80.3342 142.236 78.7045 140.497 77.7042C139.039 76.8624 137.467 76.5223 135.844 76.1653C134.337 75.8159 133.418 76.2776 131.967 76.8316Z" fill="#FFB8B8"/>
<path opacity="0.1" d="M148.635 65.1113C149.493 66.2285 149.675 67.7274 149.582 69.1263C149.489 70.5252 149.155 71.9086 149.106 73.3137C149.038 75.2404 149.505 77.1609 149.426 79.0815C149.37 80.425 149.05 81.7423 148.671 83.0319C148.224 84.5539 147.577 86.1897 146.164 86.9207C144.289 87.8918 140.356 87.3454 138.384 88.1057C138.563 86.993 140.284 85.3818 140.463 84.2692C140.587 83.4997 140.712 82.7087 140.579 81.9377C140.409 80.9543 139.829 80.0818 139.14 79.3554C138.045 78.1997 136.615 77.3302 135.045 77.0471C133.474 76.7639 129.63 76.9963 128.373 77.9827C128.218 76.964 131.096 75.9821 132.108 75.7621C132.613 75.6497 133.191 75.7128 133.595 75.3943C134.369 74.791 133.807 73.5891 133.844 72.6242C133.873 71.8548 134.325 71.1499 134.417 70.3805C134.571 69.1494 133.764 67.8951 134.081 66.6871C134.198 66.2408 134.46 65.8484 134.641 65.4237C135.192 64.1233 134.95 62.6398 134.656 61.2578C134.474 60.3899 134.296 59.4111 134.782 58.6709C135.232 57.9799 136.51 60.4407 137.328 60.3268C140.031 59.9497 142.477 57.9569 144.661 59.5881C145.773 60.4191 145.918 61.2809 146.363 62.4674C146.794 63.597 147.913 64.1756 148.635 65.1113Z" fill="black"/>
<path d="M149.099 65.1113C149.956 66.2286 150.139 67.7275 150.046 69.1264C149.953 70.5252 149.619 71.9087 149.57 73.3137C149.502 75.2404 149.969 77.161 149.89 79.0816C149.834 80.425 149.514 81.7423 149.135 83.0319C148.688 84.5539 148.041 86.1898 146.628 86.9208C144.753 87.8918 140.82 87.3455 138.847 88.1057C139.027 86.9931 140.747 85.3819 140.927 84.2692C141.051 83.4998 141.176 82.7088 141.043 81.9378C140.873 80.9544 140.293 80.0819 139.604 79.3555C138.509 78.1998 137.079 77.3303 135.509 77.0471C133.938 76.764 130.093 76.9963 128.837 77.9828C128.682 76.964 131.56 75.9822 132.572 75.7621C133.076 75.6498 133.655 75.7129 134.059 75.3943C134.832 74.7911 134.271 73.5892 134.308 72.6243C134.337 71.8548 134.789 71.15 134.88 70.3806C135.035 69.1494 134.228 67.8952 134.545 66.6872C134.662 66.2409 134.924 65.8485 135.105 65.4237C135.656 64.1233 135.414 62.6398 135.12 61.2579C134.938 60.39 134.76 59.4112 135.246 58.671C135.696 57.98 136.576 57.7184 137.395 57.603C140.135 57.2343 142.912 57.9468 145.131 59.5882C146.243 60.4192 146.389 61.281 146.833 62.4675C147.258 63.597 148.377 64.1757 149.099 65.1113Z" fill="#7A70FA"/>
<path d="M46.7261 57.8198L55.1382 88.7427C55.2414 89.1216 55.4583 89.4602 55.7598 89.7134C56.0614 89.9666 56.4334 90.1224 56.8262 90.16L94.6893 93.778C94.9979 93.8076 95.3091 93.7632 95.5969 93.6486C95.8847 93.5339 96.1407 93.3524 96.3434 93.1191C96.5462 92.8858 96.6897 92.6076 96.7621 92.3077C96.8345 92.0079 96.8336 91.6952 96.7595 91.3958L87.5475 54.0957C87.4378 53.6523 87.1737 53.262 86.8021 52.994C86.4304 52.7261 85.9753 52.5978 85.5175 52.6322L48.4481 55.3899C48.1635 55.4119 47.8873 55.4961 47.6391 55.6365C47.391 55.7769 47.177 55.97 47.0126 56.2021C46.8481 56.4342 46.7371 56.6995 46.6876 56.9791C46.6381 57.2588 46.6512 57.5458 46.7261 57.8198Z" fill="#9C9CA1"/>
<path d="M121.782 63.854C124.081 63.854 125.944 61.9765 125.944 59.6604C125.944 57.3444 124.081 55.4669 121.782 55.4669C119.483 55.4669 117.62 57.3444 117.62 59.6604C117.62 61.9765 119.483 63.854 121.782 63.854Z" fill="white"/>
<path d="M125.2 52.0106C125.2 52.0106 126.077 54.6051 123.488 55.6962L123.157 56.2718L124.779 57.863C124.779 57.863 126.778 54.2358 126.561 52.9477C126.561 52.9477 126.252 51.6397 125.2 52.0106Z" fill="white"/>
<path d="M122.261 63.854C124.477 63.854 126.274 62.0667 126.274 59.862C126.274 57.6574 124.477 55.8701 122.261 55.8701C120.044 55.8701 118.247 57.6574 118.247 59.862C118.247 62.0667 120.044 63.854 122.261 63.854Z" fill="#6C63FF"/>
<path d="M126.581 53.5372L125.943 52.4907L125.015 52.3599C125.213 48.9143 124.314 47.8878 124.314 47.8878L124.105 47.8678L123.196 47.7801L121.484 46.0134V45.5117C123.889 45.7964 125.218 46.9321 125.936 48.2633C127.204 50.5994 126.581 53.5372 126.581 53.5372Z" fill="#6C63FF"/>
<path opacity="0.1" d="M124.113 47.2338V47.8678L123.203 47.7801L121.492 46.0134C121.492 46.0134 124.139 46.6028 124.113 47.2338Z" fill="black" stroke="#4C4981" stroke-miterlimit="10"/>
<path opacity="0.1" d="M126.581 53.5371L125.943 52.4906V48.2694C127.204 50.5993 126.581 53.5371 126.581 53.5371Z" fill="black" stroke="#4C4981" stroke-miterlimit="10"/>
<path d="M114.844 61.5031C115.911 60.8899 115.866 58.8223 114.741 56.885C113.616 54.9477 111.839 53.8744 110.771 54.4876C109.704 55.1008 109.749 57.1684 110.874 59.1057C111.999 61.0429 113.776 62.1163 114.844 61.5031Z" fill="white"/>
<path d="M113.41 57.6568C114.534 59.5942 115.914 60.8885 114.847 61.504C113.779 62.1196 110.669 61.8118 109.545 59.8728C108.42 57.9338 109.441 55.2561 110.509 54.6405C111.576 54.0249 112.283 55.7147 113.41 57.6568Z" fill="#6C63FF"/>
<path opacity="0.1" d="M123.425 43.6988C123.425 49.8899 119.166 55.8562 112.941 55.8562C109.952 55.8562 107.085 54.6751 104.971 52.5726C102.857 50.4702 101.67 47.6186 101.67 44.6453C101.67 41.672 102.857 38.8204 104.971 36.7179C107.085 34.6155 109.952 33.4343 112.941 33.4343C119.166 33.4405 123.425 37.5063 123.425 43.6988Z" fill="black"/>
<path d="M112.941 55.5546C119.166 55.5546 124.213 50.5353 124.213 44.3436C124.213 38.152 119.166 33.1327 112.941 33.1327C106.716 33.1327 101.67 38.152 101.67 44.3436C101.67 50.5353 106.716 55.5546 112.941 55.5546Z" fill="#FFB8B8"/>
<path d="M111.951 39.3762C113.292 39.8671 114.086 41.2459 115.29 42.0138C116.992 43.0911 119.207 42.8125 121.151 42.2801C122.234 41.9861 123.366 41.6276 124.432 41.9538C124.589 42.0229 124.762 42.0474 124.932 42.0246C125.164 41.9584 125.278 41.703 125.354 41.4752C126.673 37.5664 126.08 33.1389 124.09 29.5225C123.577 28.5899 122.961 27.6881 122.113 27.0402C121.445 26.5309 120.659 26.1969 119.866 25.9122C118.419 25.3951 116.921 25.0274 115.398 24.815C115.129 24.7664 114.854 24.7576 114.583 24.7888C114.21 24.8488 113.876 25.0489 113.543 25.2274C112.118 25.987 110.538 26.4139 108.923 26.4755C106.757 26.557 104.281 26.0492 102.612 27.4311C100.601 29.0885 101.102 32.3218 99.7976 34.5717C98.9342 36.0598 97.2694 37.1401 96.9956 38.8345C96.9243 39.3523 96.9574 39.8791 97.0931 40.3841C97.7305 42.9911 100.268 45.0101 102.972 45.0578C103.388 45.0893 103.804 45.0046 104.173 44.8131C104.415 44.6488 104.629 44.4467 104.806 44.2145C106.577 42.1277 108.604 38.1512 111.951 39.3762Z" fill="#444053"/>
<path opacity="0.1" d="M125.354 40.341C125.278 40.5688 125.164 40.8242 124.932 40.8904C124.762 40.9132 124.589 40.8887 124.432 40.8196C123.366 40.4934 122.227 40.8519 121.152 41.1459C119.207 41.6783 116.987 41.963 115.291 40.8796C114.086 40.1102 113.294 38.7252 111.951 38.2419C108.604 37.0108 106.577 40.9935 104.801 43.0803C104.624 43.3125 104.41 43.5146 104.168 43.6789C103.799 43.8704 103.383 43.9551 102.968 43.9236C100.272 43.8759 97.7334 41.8569 97.0882 39.2499C97.0526 39.096 97.0216 38.9422 96.9984 38.7883C96.9984 38.8021 96.9984 38.8144 96.9907 38.8283C96.9194 39.3461 96.9525 39.873 97.0882 40.378C97.7256 42.9849 100.265 45.0039 102.968 45.0516C103.383 45.0831 103.799 44.9984 104.168 44.8069C104.41 44.6427 104.624 44.4405 104.801 44.2083C106.577 42.1215 108.604 38.145 111.951 39.37C113.294 39.8609 114.086 41.2397 115.291 42.0077C116.993 43.0849 119.207 42.8064 121.152 42.2739C122.235 41.98 123.366 41.6214 124.432 41.9477C124.589 42.0167 124.762 42.0412 124.932 42.0184C125.164 41.9523 125.278 41.6968 125.354 41.469C125.886 39.8697 126.121 38.1875 126.047 36.5045C126.002 37.8097 125.768 39.1017 125.354 40.341Z" fill="black"/>
</g>
<defs>
<clipPath id="clip0">
<rect width="177" height="95" fill="white"/>
</clipPath>
</defs>
</svg>

